<?xml version="1.0" encoding="utf-8"?>
<!-- Generator: Adobe Illustrator 21.0.0, SVG Export Plug-In . SVG Version: 6.00 Build 0)  -->
<svg version="1.1" id="Layer_1" xmlns="http://www.w3.org/2000/svg" xmlns:xlink="http://www.w3.org/1999/xlink" x="0px" y="0px"
	 viewBox="0 0 500 100" enable-background="new 0 0 500 100" xml:space="preserve">
<g>
	<g>
		<path d="M1.4,59.9c0,5.5,0,11.1,0,16.6c1,0,2,0,3,0c0-1.1,0-2.1,0-3.2c0-1.9-3-1.9-3,0c0,4.8,0,9.5,0,14.3c0,1.9,3,1.9,3,0
			c0-4.8,0-9.5,0-14.3c-1,0-2,0-3,0c0,1.1,0,2.1,0,3.2c0,1.9,3,1.9,3,0c0-5.5,0-11.1,0-16.6C4.4,58,1.4,58,1.4,59.9L1.4,59.9z"/>
	</g>
</g>
<g>
	<g>
		<path d="M12,65.6c0,7,0,14,0,21c0,1.9,3,1.9,3,0c0-8.6,0-17.2,0-25.9c0-1.9-3-1.9-3,0c0,8.6,0,17.2,0,25.9c0,1.9,3,1.9,3,0
			c0-7,0-14,0-21C15,63.7,12,63.6,12,65.6L12,65.6z"/>
	</g>
</g>
<g>
	<g>
		<path d="M5.8,38.9c0-6.3,0-12.5,0-18.8c0-1.9-3-1.9-3,0c0,6.3,0,12.5,0,18.8C2.8,40.8,5.8,40.9,5.8,38.9L5.8,38.9z"/>
	</g>
</g>
<g>
	<g>
		<path d="M14.8,38.2c0-6.2,0-12.3,0-18.5c0-1.9-3-1.9-3,0c0,6.2,0,12.3,0,18.5C11.8,40.1,14.8,40.1,14.8,38.2L14.8,38.2z"/>
	</g>
</g>
<g>
	<g>
		<path d="M19.2,44c14.9,0,29.9,0,44.8,0c1.9,0,1.9-3,0-3c-14.9,0-29.9,0-44.8,0C17.2,41,17.2,44,19.2,44L19.2,44z"/>
	</g>
</g>
<g>
	<g>
		<path d="M16.8,50.7c16.2,0,32.3,0,48.5,0c1.9,0,1.9-3,0-3c-16.2,0-32.3,0-48.5,0C14.8,47.7,14.8,50.7,16.8,50.7L16.8,50.7z"/>
	</g>
</g>
<g>
	<g>
		<path d="M65.8,53.9c0,11.2,0,22.4,0,33.6c0,1.9,3,1.9,3,0c0-11.2,0-22.4,0-33.6C68.8,52,65.8,52,65.8,53.9L65.8,53.9z"/>
	</g>
</g>
<g>
	<g>
		<path d="M75.4,53.6c0,11.5,0,23.1,0,34.6c0,1.9,3,1.9,3,0c0-11.5,0-23.1,0-34.6C78.4,51.7,75.4,51.6,75.4,53.6L75.4,53.6z"/>
	</g>
</g>
<g>
	<g>
		<path d="M14.6,20.4c0.8-3.1-1.5-5.8-4.7-5.5c-1.5,0.1-3,0.5-4,1.7C5,17.7,4.3,19.4,4,20.8c1,0,1.9,0,2.9,0C6.5,19.9,6,18.7,7,18
			c0.8-0.6,1.9-0.4,2.8-0.3c0-1,0-1.9,0-2.9c-3.5,1-6.7,1.7-7.1,5.8c-0.2,1.8,2.4,1.8,2.9,0.4C6,20.3,6,19.7,6,18.9
			c-0.1,0.4-0.3,0.7-0.4,1.1c0.3,0,0.6,0,1,0c1.7,0.9,3.2-1.7,1.5-2.6c-1.2-0.6-2.6-0.8-3.8-0.1c-1.4,0.8-1,1.8-1.5,3.1
			c1,0.1,2,0.3,2.9,0.4c0.3-2.2,3.2-2.5,4.9-2.9c1.3-0.4,1.5-2.7,0-2.9c-2-0.3-4.2-0.4-5.9,1.1c-1.7,1.5-1.6,3.7-0.8,5.6
			c0.5,1.2,2.6,1.6,2.9,0c0.2-1.1,0.7-2.6,1.5-3.3c1.1-0.9,3.8-0.8,3.3,1.2C11.2,21.4,14.1,22.2,14.6,20.4L14.6,20.4z"/>
	</g>
</g>
<g>
	<g>
		<path d="M11.7,38c0.5,1.9,1.1,3.9,3,5c1.8,1,4.3,1.1,6.2,1.4c1.9,0.3,2.7-2.5,0.8-2.9c-1.5-0.3-3.1-0.5-4.6-0.8
			c-1.8-0.4-2.1-1.8-2.5-3.5C14.2,35.3,11.3,36.1,11.7,38L11.7,38z"/>
	</g>
</g>
<g>
	<g>
		<path d="M17.2,47.6c-4.4-0.3-9.7-4.3-9.4-9.1c0.1-1.9-2.9-1.9-3,0C4.4,45,11.2,50.3,17.2,50.6C19.1,50.7,19.1,47.7,17.2,47.6
			L17.2,47.6z"/>
	</g>
</g>
<g>
	<g>
		<path d="M3,38.3c-0.6,5.1,4.9,9.2,9.2,10.6c1.8,0.6,2.6-2.3,0.8-2.9c-3.1-1-7.4-4-7-7.7C6.3,36.3,3.3,36.4,3,38.3L3,38.3z"/>
	</g>
</g>
<g>
	<g>
		<path d="M4.5,59.3c-0.1-0.1-0.1-0.2-0.2-0.3c0.1,0.4,0.1,0.8,0.2,1.2c0,0.3,0.8-0.3,1.1-0.5c1-0.4,1.9-0.7,3-0.5
			c1.7,0.3,3.2,1.4,3.5,3.1c0.3,1.9,3.2,1.1,2.9-0.8c-0.6-3.3-4.2-5.6-7.5-5.4c-1.8,0.1-7.6,2-5.5,4.7C3,62.3,5.7,60.8,4.5,59.3
			L4.5,59.3z"/>
	</g>
</g>
<g>
	<g>
		<path d="M12.2,86.3c-0.5,2.2-2,3-4.2,3c-0.6,0-2-0.2-2.6-0.6C4.2,88,4.6,87.1,4.5,86c-0.1-1.9-3.1-1.9-3,0c0.1,1.5-0.2,3,0.8,4.3
			c1.1,1.3,3.3,1.7,4.9,1.9c3.9,0.4,7-1.2,7.9-5.1C15.5,85.2,12.6,84.4,12.2,86.3L12.2,86.3z"/>
	</g>
</g>
<g>
	<g>
		<path d="M62.8,50.2c1.2,0.3,3.5,2.4,3.5,3.7c0.9-0.3,1.9-0.5,2.8-0.8c-1-1.5-1.4-3.4-3-4.4c-0.7-0.4-1.5-0.6-2.3-0.6
			c-1.3-0.1-2.5-0.2-3.7-0.8c-1.7-0.8-3.3,1.7-1.5,2.6c1.5,0.7,2.9,1,4.6,1.2c1,0.1,1.5,0.2,2.1,1.2c0.4,0.8,0.7,1.6,1.2,2.4
			c0.8,1.2,2.9,0.8,2.8-0.8c-0.1-1.7-1.1-2.8-2.1-4.1c-1-1.2-2-2.1-3.6-2.5C61.7,46.8,60.9,49.7,62.8,50.2L62.8,50.2z"/>
	</g>
</g>
<g>
	<g>
		<path d="M64.1,44.1c2.8-0.1,5,1.7,7.2,3.2c1,0.7,1.9,1.2,2.5,2.3c0.6,1.1,1,2.4,1.5,3.6c0.7,1.8,3.6,1,2.9-0.8
			c-1.2-3.1-1.9-5.4-4.7-7.3c-2.9-2-5.7-4.1-9.3-4C62.2,41.1,62.2,44.1,64.1,44.1L64.1,44.1z"/>
	</g>
</g>
<g>
	<g>
		<path d="M65.9,87.2c-0.3,2.8,3.1,4.8,5.5,5.2c2.7,0.5,5.4-0.8,6.9-3.1c1-1.6-1.6-3.1-2.6-1.5c-0.7,1.2-2,1.8-3.4,1.7
			c-0.9-0.1-3.5-1.1-3.4-2.3C69,85.3,66,85.3,65.9,87.2L65.9,87.2z"/>
	</g>
</g>
<g>
	<g>
		<path d="M90.8,53.3c0,8.8,0,17.6,0,26.4c0,1.9,3,1.9,3,0c0-8.8,0-17.6,0-26.4C93.8,51.4,90.8,51.4,90.8,53.3L90.8,53.3z"/>
	</g>
</g>
<g>
	<g>
		<path d="M99.9,53.3c0,11.8,0,23.5,0,35.3c0,1.9,3,1.9,3,0c0-11.8,0-23.5,0-35.3C102.9,51.3,99.9,51.3,99.9,53.3L99.9,53.3z"/>
	</g>
</g>
<g>
	<g>
		<path d="M154.4,53.7c0,9.1,0,18.2,0,27.3c0,1.9,3,1.9,3,0c0-9.1,0-18.2,0-27.3C157.4,51.7,154.4,51.7,154.4,53.7L154.4,53.7z"/>
	</g>
</g>
<g>
	<g>
		<path d="M105.1,85.8c17.1,0,34.2,0,51.2,0c1.9,0,1.9-3,0-3c-17.1,0-34.2,0-51.2,0C103.2,82.8,103.1,85.8,105.1,85.8L105.1,85.8z"
			/>
	</g>
</g>
<g>
	<g>
		<path d="M104.2,50c16.3,0,32.5,0,48.8,0c1.9,0,1.9-3,0-3c-16.3,0-32.5,0-48.8,0C102.2,47,102.2,50,104.2,50L104.2,50z"/>
	</g>
</g>
<g>
	<g>
		<path d="M104.7,43.2c11.4,0,22.7,0,34.1,0c1.9,0,1.9-3,0-3c-0.8,0-1.6,0-2.4,0c-1.9,0-1.9,3,0,3c5.3,0,10.7,0,16,0
			c1.9,0,1.9-3,0-3c-0.4,0-0.7,0-1.1,0c-1.9,0-1.9,3,0,3c0.4,0,0.7,0,1.1,0c1.9,0,1.9-3,0-3c-5.3,0-10.7,0-16,0c-1.9,0-1.9,3,0,3
			c0.8,0,1.6,0,2.4,0c1.9,0,1.9-3,0-3c-11.4,0-22.7,0-34.1,0C102.7,40.2,102.7,43.2,104.7,43.2L104.7,43.2z"/>
	</g>
</g>
<g>
	<g>
		<path d="M105.3,92.1c16.1,0,32.3,0,48.4,0c1.9,0,1.9-3,0-3c-16.1,0-32.3,0-48.4,0C103.4,89.1,103.4,92.1,105.3,92.1L105.3,92.1z"
			/>
	</g>
</g>
<g>
	<g>
		<path d="M163.5,51c0,10.1,0,20.3,0,30.4c0,1.9,3,1.9,3,0c0-10.1,0-20.3,0-30.4C166.5,49.1,163.5,49.1,163.5,51L163.5,51z"/>
	</g>
</g>
<g>
	<g>
		<path d="M105.6,47.1c-4.8,0.2-6,7-5.9,10.8c0.1,1.9,3.1,1.9,3,0c-0.1-1.5,0.1-3,0.5-4.4c0.3-1.1,1-3.3,2.4-3.4
			C107.5,50,107.5,47,105.6,47.1L105.6,47.1z"/>
	</g>
</g>
<g>
	<g>
		<path d="M151.9,50.2c2.9-0.3,3.5,4,3.5,6.2c1-0.1,2-0.3,2.9-0.4c-0.7-2-0.9-3.9-1-6c-0.1-1.9-3.1-1.9-3,0c0.1,2.3,0.3,4.6,1.1,6.8
			c0.5,1.5,3,1.4,2.9-0.4c0-3.8-1.7-9.7-6.5-9.2C150,47.4,150,50.4,151.9,50.2L151.9,50.2z"/>
	</g>
</g>
<g>
	<g>
		<path d="M93.8,53.4c1-2.9,2.1-4.8,4.5-6.8c2.2-1.9,5-4,8.1-3.3c1.9,0.5,2.7-2.4,0.8-2.9c-3.6-0.9-6.8,0.8-9.6,2.9
			c-1.6,1.3-3.6,2.7-4.7,4.5c-1,1.4-1.4,3.2-1.9,4.8C90.3,54.4,93.2,55.2,93.8,53.4L93.8,53.4z"/>
	</g>
</g>
<g>
	<g>
		<path d="M151.5,43.2c5.2,0.8,10.5,2.2,11.9,8c0.4,1.7,2.9,1.2,2.9-0.4c0.1-1.2-0.3-2-1.2-2.7c-1.5-1.2-3.6,0.9-2.1,2.1
			c0.1,0.2,0.2,0.4,0.3,0.6c1-0.1,2-0.3,2.9-0.4c-1.6-6.9-7.6-9.1-14-10.1C150.4,40,149.6,42.9,151.5,43.2L151.5,43.2z"/>
	</g>
</g>
<g>
	<g>
		<path d="M90.8,80.2c0.4,1.7,1.5,3.3,2.5,4.6c0.5,0.6,1.3,1,2.1,0.5c0.6-0.4,1-1.4,0.5-2.1c-0.9-1.2-1.9-2.5-2.2-3.9
			C93.2,77.6,90.3,78.4,90.8,80.2L90.8,80.2z"/>
	</g>
</g>
<g>
	<g>
		<path d="M90.8,80.5c1,2.8,2.5,5.2,4.9,7.1c2.7,2.2,5.9,2.8,9,4c0-1,0-1.9,0-2.9c-1,0.4-2.9-0.6-3.8-1c-1.4-0.6-2.5-1.5-3.3-2.9
			c-0.9-1.7-3.5-0.2-2.6,1.5c1,1.9,2.6,3.2,4.5,4.1c1.7,0.8,4.1,1.9,5.9,1.2c1.4-0.5,1.4-2.4,0-2.9c-2.6-0.9-5.3-1.4-7.5-3.1
			c-2-1.5-3.4-3.5-4.2-5.9C93.1,77.9,90.2,78.7,90.8,80.5L90.8,80.5z"/>
	</g>
</g>
<g>
	<g>
		<path d="M102.9,91.1c0.2,0.1,0.8,0.4,1,0.5c0.6,0.5,1.5,0.6,2.1,0c0.5-0.5,0.6-1.6,0-2.1c-0.7-0.6-1.4-1-2.3-1.3
			c-0.7-0.3-1.7,0.3-1.8,1C101.7,90.1,102.1,90.8,102.9,91.1L102.9,91.1z"/>
	</g>
</g>
<g>
	<g>
		<path d="M99.9,78.6c0.3,2,1,4,2.5,5.4c1.6,1.5,3.6,1.9,5.7,2.1c1.9,0.2,1.9-2.8,0-3c-1.4-0.2-2.9-0.4-3.8-1.5
			c-0.9-1-1.2-2.5-1.5-3.8C102.5,75.9,99.6,76.7,99.9,78.6L99.9,78.6z"/>
	</g>
</g>
<g>
	<g>
		<path d="M154.6,78.7c0.5,1.6-1.3,3.4-2.6,4c-1.5,0.7-3.1,1.1-4.7,1.6c-1.8,0.6-1,3.5,0.8,2.9c2.3-0.8,5.3-1.3,7.1-3
			c1.6-1.5,2.9-4.1,2.2-6.3C156.9,76.1,154,76.9,154.6,78.7L154.6,78.7z"/>
	</g>
</g>
<g>
	<g>
		<path d="M152.7,91.9c5.9,1.5,15.2-6.3,12.4-12.5c-0.8-1.8-3.4-0.2-2.6,1.5c0.9,2.1-1.7,4.7-3.1,5.9c-1.5,1.2-3.9,2.6-5.9,2.1
			C151.7,88.5,150.9,91.4,152.7,91.9L152.7,91.9z"/>
	</g>
</g>
<g>
	<g>
		<path d="M158.8,75.7c1.9,0,1.9-3,0-3C156.9,72.7,156.9,75.7,158.8,75.7L158.8,75.7z"/>
	</g>
</g>
<g>
	<g>
		<path d="M163.4,80.2c0.2,0.2,0.2,1.3,0.1,1.5c-0.2,0.5-0.6,0.7-0.8,1.2c-0.3,0.7,0.2,1.3,0.7,1.7c0,0,0,0,0.1,0
			c0.5,0.4,1.4,0.2,1.8-0.2c0,0,0,0,0,0c1.4-1.4-0.7-3.5-2.1-2.1c0,0,0,0,0,0c0.6-0.1,1.2-0.2,1.8-0.2c0,0,0,0-0.1,0
			c0.2,0.6,0.5,1.1,0.7,1.7c0,0,0-0.1,0-0.1c-0.1,0.2-0.3,0.4-0.4,0.7c1.7-1.4,1.7-4.7,0.3-6.3C164.2,76.6,162.1,78.8,163.4,80.2
			L163.4,80.2z"/>
	</g>
</g>
<g>
	<g>
		<path d="M345.7,50.4c0,11.3,0,22.6,0,33.9c0,1.9,3,1.9,3,0c0-0.3,0-0.5,0-0.8c0-1.9-3-1.9-3,0c0,0.3,0,0.5,0,0.8c0,1.9,3,1.9,3,0
			c0-11.3,0-22.6,0-33.9C348.7,48.5,345.7,48.5,345.7,50.4L345.7,50.4z"/>
	</g>
</g>
<g>
	<g>
		<path d="M355.1,50.6c0,11.5,0,22.9,0,34.4c0,1.9,3,1.9,3,0c0-11.5,0-22.9,0-34.4C358.1,48.7,355.1,48.7,355.1,50.6L355.1,50.6z"/>
	</g>
</g>
<g>
	<g>
		<path d="M359.7,41.2c13.6,0,27.1,0,40.7,0c1.9,0,1.9-3,0-3c-13.6,0-27.1,0-40.7,0C357.8,38.2,357.8,41.2,359.7,41.2L359.7,41.2z"
			/>
	</g>
</g>
<g>
	<g>
		<path d="M359.7,47.5c13.2,0,26.3,0,39.5,0c1.9,0,1.9-3,0-3c-0.1,0-0.2,0-0.3,0c-1.9,0-1.9,3,0,3c0.1,0,0.2,0,0.3,0
			c1.9,0,1.9-3,0-3c-13.2,0-26.3,0-39.5,0C357.7,44.5,357.7,47.5,359.7,47.5L359.7,47.5z"/>
	</g>
</g>
<g>
	<g>
		<path d="M361.7,44.6c-2.1,0.4-4.3,1.1-5.4,3.1c-1.3,2.3-1.7,5.5-1.7,8c0,1.9,3,1.9,3,0c0-1.9,0.3-4.1,1.1-5.9
			c0.7-1.7,2.2-2,3.9-2.3C364.4,47.2,363.6,44.3,361.7,44.6L361.7,44.6z"/>
	</g>
</g>
<g>
	<g>
		<path d="M400.7,41.4c1.2-0.3,1.4,1,1.1,1.8c-0.3,0.8-1.2,1.1-1.9,1.3c-1.7,0.3-3.4-0.5-4.9-1.2c-1.7-0.8-3.3,1.7-1.5,2.6
			c3.3,1.6,8.2,3,10.7-0.7c2.1-3.2-0.3-7.5-4.2-6.6C398,38.9,398.8,41.8,400.7,41.4L400.7,41.4z"/>
	</g>
</g>
<g>
	<g>
		<path d="M348.8,50.5c1.6-5.4,6-9.2,11.7-9.2c1.9,0,1.9-3,0-3c-2.9,0-6.6,0.7-8.9,2.7c-2.6,2.2-4.7,5.5-5.6,8.7
			C345.4,51.6,348.3,52.4,348.8,50.5L348.8,50.5z"/>
	</g>
</g>
<g>
	<g>
		<path d="M359,41.4c1.9,0,1.9-3,0-3C357.1,38.4,357.1,41.4,359,41.4L359,41.4z"/>
	</g>
</g>
<g>
	<g>
		<path d="M359,41.4c1.9,0,1.9-3,0-3C357.1,38.4,357.1,41.4,359,41.4L359,41.4z"/>
	</g>
</g>
<g>
	<g>
		<path d="M345.9,84.1c-0.2,2,2.4,4,4.2,4.2c1.2,0.2,2.3-0.3,3.3-0.7c1-0.4,1.8-1.5,2.8-1.8c-0.6-0.2-1.1-0.5-1.7-0.7
			c0.2,0.5,0.5,0.9,0.9,1.4c0-0.7,0-1.4,0-2.1c-1.2,1-2.2,2-3.9,1.9c-1.6-0.1-2.3-0.8-2.4-2.4c-0.1-1.9-3.1-1.9-3,0
			c0.2,2.7,1.2,4.6,4,5.2c1.2,0.2,2.5,0.3,3.7,0c1.5-0.4,2.6-1.7,3.8-2.6c0.7-0.6,0.5-1.5,0-2.1c-0.2-0.2-0.3-0.5-0.4-0.8
			c-0.3-0.6-1.1-0.9-1.7-0.7c-1.2,0.4-1.9,1.3-3,1.9c-0.7,0.3-1.5,0.7-2.3,0.4c-0.2-0.1-1.3-0.9-1.3-1.1
			C349.1,82.2,346.1,82.2,345.9,84.1L345.9,84.1z"/>
	</g>
</g>
<g>
	<g>
		<path d="M348.8,84c-0.6-0.2-1.2-0.1-1.8,0.2c-0.7,0.3-0.9,1.4-0.5,2.1c0.5,0.8,1.3,0.9,2.1,0.5c-0.7,0-0.8,0-0.5,0.1
			c0.7,0.3,1.7-0.3,1.8-1C350.1,85,349.6,84.3,348.8,84L348.8,84z"/>
	</g>
</g>
<g>
	<g>
		<path d="M346.8,55.5c-0.3,4.7-0.1,9.4-0.3,14.1c-0.1,2.7,0.2,5.5-0.1,8.2c-0.3,2.2-0.6,3.8,0.4,5.9c1.7,3.7,8.6,3,9.1-1.2
			c0,0,0-0.1,0-0.1c0.9-6.3-8.8-9-9.6-2.7c0,0,0,0.1,0,0.1c3-0.4,6.1-0.8,9.1-1.2c0-0.1-0.1-0.2-0.1-0.3c0.2,1.3,0.3,2.6,0.5,3.9
			c1.2-8.9,0.3-17.8,1-26.7C357.3,49.1,347.3,49.1,346.8,55.5L346.8,55.5z"/>
	</g>
</g>
<g>
	<g>
		<path d="M356.5,51.8c0.2,0.7,0.1,1.3-0.1,1.9c-0.2,0.4-0.1,0.3,0.1-0.1c0.2-0.4,0.4-0.8,0.6-1.1c0.4-0.8,0.8-1.5,1.3-2.3
			c1.3-2.3,0.6-5.6-1.8-6.8c-2.3-1.2-5.5-0.7-6.8,1.8c-1.5,2.8-4,6.1-2.9,9.4c0.8,2.5,3.5,4.4,6.2,3.5
			C355.4,57.1,357.4,54.4,356.5,51.8L356.5,51.8z"/>
	</g>
</g>
<g>
	<g>
		<path d="M358.2,48.4c6.4,0,6.4-10,0-10C351.7,38.4,351.7,48.4,358.2,48.4L358.2,48.4z"/>
	</g>
</g>
<g>
	<g>
		<path d="M401.2,37.3c-14.2,0-28.4,0-42.7,0c-6.4,0-6.4,10,0,10c14.2,0,28.4,0,42.7,0C407.6,47.3,407.6,37.3,401.2,37.3L401.2,37.3
			z"/>
	</g>
</g>
<g>
	<g>
		<path d="M355.7,48.6c6.4,0,6.4-10,0-10C349.3,38.6,349.3,48.6,355.7,48.6L355.7,48.6z"/>
	</g>
</g>
<g>
	<g>
		<path d="M356.3,48.1c6.4,0,6.4-10,0-10C349.9,38.1,349.9,48.1,356.3,48.1L356.3,48.1z"/>
	</g>
</g>
<g>
	<g>
		<path d="M356.7,47.9c6.4,0,6.4-10,0-10C350.2,37.9,350.2,47.9,356.7,47.9L356.7,47.9z"/>
	</g>
</g>
<g>
	<g>
		<path d="M357.2,48.1c6.4,0,6.4-10,0-10C350.7,38.1,350.7,48.1,357.2,48.1L357.2,48.1z"/>
	</g>
</g>
<g>
	<g>
		<path d="M357,48c6.4,0,6.4-10,0-10C350.6,38,350.6,48,357,48L357,48z"/>
	</g>
</g>
<g>
	<g>
		<path d="M357,48c6.4,0,6.4-10,0-10C350.6,38,350.6,48,357,48L357,48z"/>
	</g>
</g>
<g>
	<g>
		<path d="M356.8,47.9c6.4,0,6.4-10,0-10C350.4,37.9,350.4,47.9,356.8,47.9L356.8,47.9z"/>
	</g>
</g>
<g>
	<g>
		<path d="M356.9,47.7c6.4,0,6.4-10,0-10C350.5,37.7,350.5,47.7,356.9,47.7L356.9,47.7z"/>
	</g>
</g>
<g>
	<g>
		<path d="M357.2,47.7c6.4,0,6.4-10,0-10C350.7,37.7,350.7,47.7,357.2,47.7L357.2,47.7z"/>
	</g>
</g>
<g>
	<g>
		<path d="M357.5,47.7c6.4,0,6.4-10,0-10C351.1,37.7,351.1,47.7,357.5,47.7L357.5,47.7z"/>
	</g>
</g>
<g>
	<g>
		<path d="M357.6,47.5c6.4,0,6.4-10,0-10C351.1,37.5,351.1,47.5,357.6,47.5L357.6,47.5z"/>
	</g>
</g>
<g>
	<g>
		<path d="M357.7,47.5c6.4,0,6.4-10,0-10C351.2,37.5,351.2,47.5,357.7,47.5L357.7,47.5z"/>
	</g>
</g>
<g>
	<g>
		<path d="M354.7,49.4c6.4,0,6.4-10,0-10C348.2,39.4,348.2,49.4,354.7,49.4L354.7,49.4z"/>
	</g>
</g>
<g>
	<g>
		<path d="M353.9,50.5c6.4,0,6.4-10,0-10C347.5,40.5,347.5,50.5,353.9,50.5L353.9,50.5z"/>
	</g>
</g>
<g>
	<g>
		<path d="M353.6,50.5c6.4,0,6.4-10,0-10C347.1,40.5,347.1,50.5,353.6,50.5L353.6,50.5z"/>
	</g>
</g>
<g>
	<g>
		<path d="M353.8,49.9c6.4,0,6.4-10,0-10C347.4,39.9,347.4,49.9,353.8,49.9L353.8,49.9z"/>
	</g>
</g>
<g>
	<g>
		<path d="M355.5,49c6.4,0,6.4-10,0-10C349.1,39,349.1,49,355.5,49L355.5,49z"/>
	</g>
</g>
<g>
	<g>
		<path d="M355.7,48.4c6.4,0,6.4-10,0-10C349.3,38.4,349.3,48.4,355.7,48.4L355.7,48.4z"/>
	</g>
</g>
<g>
	<g>
		<path d="M351.4,40.8c-0.5,0.9-0.1,0.2,0.1,0c-0.5,0.5-1.2,0.8-1.8,1.3c-0.5,0.5-0.9,1.1-1.3,1.7c-0.6,1.3-0.7,1.6-0.3,0.9
			c-0.1,0.2-0.3,0.4-0.4,0.6c-1.8,2.6-2.8,5.9-1,8.8c1.4,2.3,4.5,3.2,6.8,1.8c2.3-1.3,3.2-4.5,1.8-6.8c0,0.9,0,1.9,0.1,2.8
			c0.1-0.2,0.2-0.3,0.2-0.5c0.2-0.3,0.4-0.6,0.6-0.9c0.2-0.3,0.4-0.5,0.5-0.8c0.3-0.5,1.4-2.3,0.3-1.1c-0.2,0.2-0.9,0.8-0.4,0.6
			c0.5-0.2,1-0.7,1.4-1.1c0.8-0.7,1.4-1.5,1.9-2.4c1.4-2.3,0.5-5.5-1.8-6.8C355.9,37.7,352.7,38.5,351.4,40.8L351.4,40.8z"/>
	</g>
</g>
<g>
	<g>
		<path d="M351.7,53.2c6.4,0,6.4-10,0-10C345.2,43.2,345.2,53.2,351.7,53.2L351.7,53.2z"/>
	</g>
</g>
<g>
	<g>
		<path d="M351.9,52.7c6.4,0,6.4-10,0-10C345.5,42.7,345.5,52.7,351.9,52.7L351.9,52.7z"/>
	</g>
</g>
<g>
	<g>
		<path d="M352,52.4c6.4,0,6.4-10,0-10C345.6,42.4,345.6,52.4,352,52.4L352,52.4z"/>
	</g>
</g>
<g>
	<g>
		<path d="M354.8,49.4c6.4,0,6.4-10,0-10C348.4,39.4,348.4,49.4,354.8,49.4L354.8,49.4z"/>
	</g>
</g>
<g>
	<g>
		<path d="M352.2,53.7c6.4,0,6.4-10,0-10C345.8,43.7,345.8,53.7,352.2,53.7L352.2,53.7z"/>
	</g>
</g>
<g>
	<g>
		<path d="M351.7,53.6c6.4,0,6.4-10,0-10C345.2,43.6,345.2,53.6,351.7,53.6L351.7,53.6z"/>
	</g>
</g>
<g>
	<g>
		<path d="M351.4,53.5c6.4,0,6.4-10,0-10C345,43.5,345,53.5,351.4,53.5L351.4,53.5z"/>
	</g>
</g>
<g>
	<g>
		<path d="M155.1,54.3c0,8.7,0,17.4,0,26.1c0,6.4,10,6.4,10,0c0-8.7,0-17.4,0-26.1C165.1,47.9,155.1,47.9,155.1,54.3L155.1,54.3z"/>
	</g>
</g>
<g>
	<g>
		<path d="M91.8,53.8c0,8.4,0,16.8,0,25.2c0,6.4,10,6.4,10,0c0-8.4,0-16.8,0-25.2C101.8,47.3,91.8,47.3,91.8,53.8L91.8,53.8z"/>
	</g>
</g>
<g>
	<g>
		<path d="M6,58.4c-2.3,2.8-2.1,5.7-1,9c0.4,1.3,2,1.4,2.7,0.4c1.6-2.2,2.2-4.3,2.7-7c0.3-1.9-2.5-2.7-2.9-0.8
			c-0.6,3.2-0.8,5.9,1.7,8.2c1,0.9,2.5,0.2,2.6-1.1c0.1-2.1,0.2-4.2,0.3-6.4c-0.9,0.4-1.7,0.7-2.6,1.1c0.3,0.3,0.6,0.7,0.9,1
			c1.1,1.2,3.4-0.4,2.4-1.8c-0.5-0.7-1.1-1.5-1.6-2.2c-1.1-1.5-3.7-0.1-2.6,1.5c3.3,4.6,2,11.2,2.3,16.6c1-0.1,2-0.3,2.9-0.4
			c-1.1-4.2-0.1-8.4-2.3-12.3c-0.7-1.3-2.8-0.7-2.8,0.8c0,3.6,0.3,7.1-0.2,10.6c1,0,1.9,0,2.9,0c-0.8-4-1.5-8-2.1-12.1
			c-0.2-1.4-2.7-1.4-2.9,0c-0.6,3.8-1.2,7.5-1.7,11.3c1,0.1,2,0.3,2.9,0.4c-0.5-4-0.9-8.1-1.4-12.1c-0.2-1.9-3-2-3,0
			c0,3.4-0.1,6.7-0.1,10.1c0,1.9,2.9,1.9,3,0c0.1-1.6,0.1-3.2,0.2-4.9c-1,0-2,0-3,0C3.3,73.9,3.2,79.5,3.2,85c0,2.2-0.1,4.4,2.6,4.9
			c7.7,1.4,3.7-12.9,3.7-15.7c-1,0-2,0-3,0c0.3,4.1-0.6,7.7-1.3,11.7c1,0.1,2,0.3,2.9,0.4c-0.3-3.2-0.2-6.2,0.4-9.3
			c-1-0.1-2-0.3-2.9-0.4c-0.1,2.2-0.1,4.5-0.1,6.7c0,1.4,1.6,1.9,2.6,1.1c2.7-2.3,3.3-5.3,3.7-8.7c-1,0.1-2,0.3-2.9,0.4
			c0.8,3.3-0.5,5.6-0.4,8.7c0,1-0.2,1.2,0.4,2.1c0.3,0.6,1,0.9,1.7,0.7c1.6-0.4,1.5-1.3,2.3-2.5c-0.8,0.1-1.6,0.2-2.4,0.3
			c-0.5,0.9-1.2,1.3-2.1,1.2c-0.9-1.7-3.5-0.2-2.6,1.5c2.2,4.3,10.5-0.6,6.8-4.8c-0.7-0.7-1.9-0.5-2.4,0.3c0.1-0.2-0.7,1.2-0.5,1.1
			c0.6,0.2,1.1,0.5,1.7,0.7c-0.3-0.5,0.9-3.5,0.9-4.3c0.2-2-0.1-3.8-0.6-5.8c-0.5-1.8-2.7-1.2-2.9,0.4c-0.3,2.7-0.8,4.7-2.9,6.6
			c0.9,0.4,1.7,0.7,2.6,1.1c0-2.2,0-4.5,0.1-6.7c0.1-1.7-2.6-2.1-2.9-0.4C5,79.6,4.8,82.8,5.1,86.3c0.1,1.5,2.6,2.2,2.9,0.4
			c0.8-4.4,1.7-7.9,1.4-12.5c-0.1-1.9-3-1.9-3,0c0,1.9,0,3.9,0.3,5.8c0.1,1,0.7,2.4,0.6,3.4c-0.4,1.2-0.9,2.3-1.3,3.5
			c0-0.9,0-1.9,0-2.8c0.1-5.3,0.1-10.5,0.2-15.8c0-1.9-2.9-1.9-3,0c-0.1,1.6-0.1,3.2-0.2,4.9c1,0,2,0,3,0c0-3.4,0.1-6.7,0.1-10.1
			c-1,0-2,0-3,0c0.5,4,0.9,8.1,1.4,12.1c0.2,1.5,2.7,2.2,2.9,0.4c0.6-3.8,1.2-7.5,1.7-11.3c-1,0-1.9,0-2.9,0
			c0.6,4.1,1.3,8.1,2.1,12.1c0.3,1.4,2.7,1.5,2.9,0c0.6-3.8,0.3-7.6,0.3-11.4c-0.9,0.3-1.9,0.5-2.8,0.8c1.9,3.5,1,7.8,2,11.6
			c0.4,1.6,3.1,1.3,2.9-0.4c-0.4-6.3,1-12.8-2.8-18.1c-0.9,0.5-1.7,1-2.6,1.5c0.5,0.7,1.1,1.5,1.6,2.2c0.8-0.6,1.6-1.2,2.4-1.8
			c-0.3-0.3-0.6-0.7-0.9-1c-0.9-1-2.5-0.2-2.6,1.1C9,62.9,8.9,65,8.8,67.2c0.9-0.4,1.7-0.7,2.6-1.1c-0.3-1.8-0.6-3.5-0.9-5.3
			c-1-0.3-1.9-0.5-2.9-0.8c-0.4,2.3-0.9,4.3-2.4,6.3c0.9,0.1,1.8,0.2,2.7,0.4c-0.7-2.1-1.4-4.1,0.2-6.1C9.3,59,7.2,56.9,6,58.4
			L6,58.4z"/>
	</g>
</g>
<g>
	<g>
		<path d="M8.4,18c1,2.2,1.4,3.9,1.6,6.3c1,0,2,0,3,0c-0.3-3.6,0-5.9-3.9-7c-0.5-0.2-1.1,0-1.5,0.4C5,20.3,6.9,25.3,7.6,28.4
			c0.3,1.4,2.6,1.4,2.9,0c0.5-2.6,0.9-5.1,1.1-7.7c-1,0.1-2,0.3-2.9,0.4c0.9,4.1,0.6,8.3,1.7,12.4c0.4,1.6,3.1,1.3,2.9-0.4
			c-0.2-3.1-0.4-6.3-0.6-9.4c-0.1-1.6-2.5-2.1-2.9-0.4c-0.8,3.3-1.7,6.5-2.5,9.8c1,0.1,2,0.3,2.9,0.4c-0.4-3.9-0.3-8-2.3-11.4
			c-0.8-1.4-2.7-0.6-2.8,0.8c-0.6,5.5-0.5,11.9,0.7,17.3c0.3,1.3,2.1,1.4,2.7,0.4c1.5-2.5,2.2-4.9,2.3-7.9c-1,0.1-2,0.3-2.9,0.4
			c0.7,2.6,0.6,4.8,0.4,7.4c-0.1,1.7,2.6,2,2.9,0.4c0.5-2.1,1-4.1,1.5-6.2c-1-0.1-2-0.3-2.9-0.4c0,1-0.1,2-0.1,3
			c0.3,1.2-0.1,2.1-1.3,2.7c-0.8,0.6-1.6,1.2-2.4,1.8c2.9,2.5,6.7,3.1,6.3-1.7c-0.9,0.3-1.9,0.5-2.8,0.8c0.3,0.7,0.7,1.4,1,2.1
			c0.6,1.8,3.5,1.1,2.9-0.8c-0.5-1.5-0.4-1.5-1.4-2.8c-0.8-1.1-2.9-0.9-2.8,0.8C9,40,8.6,39.8,8.2,39.7C7,38.6,4.8,40,5.8,41.5
			c1.2,1.7,2.9,3.1,5,1.8c2.7-1.7,2-6.4,2-9c0.1-1.7-2.5-2-2.9-0.4c-0.6,2-1.1,4.1-1.5,6.2c1,0.1,2,0.3,2.9,0.4
			c0.2-2.8,0.3-5.5-0.5-8.2c-0.4-1.7-2.9-1.3-2.9,0.4C7.8,35,7.2,36.9,6,38.9c0.9,0.1,1.8,0.2,2.7,0.4c-1.1-5.1-1.1-11.3-0.6-16.5
			c-0.9,0.3-1.9,0.5-2.8,0.8c1.7,2.9,1.6,6.6,1.9,9.9c0.1,1.6,2.5,2.1,2.9,0.4c0.8-3.3,1.7-6.5,2.5-9.8c-1-0.1-2-0.3-2.9-0.4
			c0.2,3.1,0.4,6.3,0.6,9.4c1-0.1,2-0.3,2.9-0.4c-1.1-4-0.8-8.3-1.7-12.4c-0.4-1.7-2.8-1.2-2.9,0.4c-0.2,2.3-0.5,4.6-1,6.9
			c1,0,1.9,0,2.9,0c-0.3-1.3-0.7-2.6-0.8-3.9c-0.1-1,0.1-2.6,0.4,0.7c0.2,1.9,3.1,1.9,3,0c-0.2-2.8-0.9-5.3-2-7.8
			C10.2,14.7,7.6,16.3,8.4,18L8.4,18z"/>
	</g>
</g>
<g>
	<g>
		<path d="M11.7,44.1c0.7,1.1,1,1.4,2.3,1.5c1.9,0.3,2.7-2.6,0.8-2.9c-2.2-0.3-1.9-0.4-4.1-0.1c-1.7,0.2-2,2.3-0.4,2.9
			c2.1,0.8,4.1,1.4,6.3,1.8c1.4,0.3,2.2-1,1.7-2.2c-1.4-3-5.6-3.8-8.4-5c-1.7-0.7-3.2,1.6-1.5,2.6c1.8,1.1,3.7,2.2,5.8,2.6
			c1.8,0.4,4.1-0.2,5.8,0.5c0.1-0.9,0.2-1.8,0.4-2.7c-2.1,0.7-3.9,1.1-6.2,1.4c-1.5,0.2-2,1.9-0.8,2.8c2.7,1.9,5.6,1.7,8.8,1.7
			c4.6,0,9.1-0.1,13.7-0.2c9.8-0.2,19.5-0.4,29.3-0.8c1.4,0,2.2-2.2,0.8-2.8c-6.3-2.7-14.6-1.5-21.3-1.5c-8.6,0-17.2,0.2-25.7,0.5
			c0.4,0.8,0.9,1.5,1.3,2.3c1.1-1.7,10.6-0.1,12.7,0c4.1,0.1,8.1,0.2,12.2-0.1c3.5-0.2,6.8-0.5,10.3-0.6c3.4-0.1,13-1.5,14.1,3.7
			c0.7-0.6,1.5-1.1,2.2-1.7C71.5,47.8,68,46,68,46.7c-1,0-2,0-3,0c0.3,2.8,1.3,4.8,3.3,6.7c0.8,0.7,2.2,0.5,2.5-0.7
			c0.3-1.5,0.5-2.9,0.5-4.4c-1,0.1-2,0.3-2.9,0.4c0.7,2.1,1.4,4.3,2,6.4c0.4,1.4,2.6,1.5,2.9,0c0.5-2.7,1.9-5.6-0.1-7.9
			c-1.1-1.3-3.2,0.4-2.4,1.8c0.9,1.4,1.7,2.2,2.2,3.7c0.5,1.6,0.4,3.2,0.8,4.8c0.4,1.7,2.9,1.2,2.9-0.4c0.1-2-0.1-3.6-0.7-5.5
			c-0.6-1.9-3.3-1.1-2.9,0.8c0.6,2.6,0.6,4.5,0.1,7.1c1,0,1.9,0,2.9,0c-0.7-2.1-1.5-4.2-2.2-6.3c-0.5-1.5-3-1.4-2.9,0.4
			c0.1,2.3,0.2,4.6,0.4,7c1,0,2,0,3,0c-0.2-2.5-0.5-4.9-0.9-7.4c-0.3-1.4-2.7-1.5-2.9,0c-0.4,2.4-0.6,4.8-0.6,7.3
			c1-0.1,2-0.3,2.9-0.4c-0.8-2.4-1.6-4.9-2.3-7.4c-0.4-1.6-3.2-1.3-2.9,0.4c0.3,2.5,0.6,4.9,0.9,7.4c1-0.1,2-0.3,2.9-0.4
			c-0.3-2.1-0.6-4.1-0.9-6.2c-0.2-1.7-3-1.3-2.9,0.4c0.2,6.5,0.1,12.9-0.4,19.3c-0.1,1.5,2.2,2.1,2.8,0.8c1.9-3.9,2.7-7.8,2.3-12.2
			c-1,0.1-2,0.3-2.9,0.4c0.8,3.8,1.2,7.6,1.1,11.4c0,2,2.8,1.9,3,0c0.4-4.5,0.9-9.1,1.3-13.6c-1,0.1-2,0.3-2.9,0.4
			c0.5,2.5,0.7,4.8,0.8,7.3c0.1,2,2.8,1.9,3,0c0.2-2.1,0.4-4.2,0.6-6.3c-1,0-2,0-3,0c0.2,5.5-0.2,10.8-1.2,16.2
			c-0.4,1.9,2.5,2.7,2.9,0.8c1.1-5.6,1.5-11.2,1.3-17c-0.1-1.9-2.9-1.9-3,0c-0.1,2.1-0.3,4.2-0.6,6.3c1,0,2,0,3,0
			c-0.1-2.8-0.4-5.4-0.9-8.1c-0.3-1.8-2.8-1.2-2.9,0.4c-0.4,4.5-0.9,9.1-1.3,13.6c1,0,2,0,3,0c0.1-4.2-0.3-8.2-1.2-12.2
			c-0.4-1.6-3.1-1.3-2.9,0.4c0.4,3.8-0.1,7.2-1.8,10.6c0.9,0.3,1.9,0.5,2.8,0.8c0.5-6.4,0.7-12.9,0.4-19.3c-1,0.1-2,0.3-2.9,0.4
			c0.3,2.1,0.6,4.1,0.9,6.2c0.2,1.7,3.2,1.3,2.9-0.4c-0.3-2.5-0.6-4.9-0.9-7.4c-1,0.1-2,0.3-2.9,0.4c0.7,2.5,1.4,4.9,2.3,7.4
			c0.5,1.6,2.9,1.3,2.9-0.4c0-2.2,0.2-4.3,0.5-6.5c-1,0-1.9,0-2.9,0c0.4,2.2,0.7,4.3,0.8,6.6c0.1,1.9,3.1,1.9,3,0
			c-0.1-2.3-0.2-4.6-0.4-7c-1,0.1-2,0.3-2.9,0.4c0.7,2.1,1.5,4.2,2.2,6.3c0.4,1.3,2.6,1.6,2.9,0c0.6-3,0.5-5.7-0.1-8.7
			c-1,0.3-1.9,0.5-2.9,0.8c0.6,1.5,0.8,3.1,0.6,4.7c1-0.1,2-0.3,2.9-0.4c-0.4-1.9,0.1-4-0.7-5.9c-0.6-1.3-1.8-2.2-2.5-3.4
			c-0.8,0.6-1.6,1.2-2.4,1.8c0.5,0.6-0.6,4.3-0.7,5c1,0,1.9,0,2.9,0c-0.6-2.2-1.3-4.3-2-6.4c-0.5-1.6-3-1.4-2.9,0.4
			c0.1,1.2,0,2.4-0.4,3.6c0.8-0.2,1.7-0.4,2.5-0.7c-1.5-1.2-2.3-2.7-2.4-4.6c-0.2-1.9-3.1-2-3,0c0.2,2.9,3,2.6,5.1,3.8
			c1.2,0.7,2.5-0.4,2.2-1.7c-2-8.8-17.2-6.4-23.6-5.7c-6.6,0.7-13.1,0.6-19.7,0.3c-3.5-0.2-9.2-1.8-11.5,1.7
			c-0.6,0.9,0.2,2.3,1.3,2.3c7.3-0.2,14.6-0.4,21.9-0.5c3.5,0,7,0,10.5,0c4.1,0,9.3-0.6,13.2,1.1c0.3-0.9,0.5-1.9,0.8-2.8
			c-8.5,0.3-16.9,0.5-25.4,0.7C35.8,45.9,31.9,46,28,46c-3.9,0-9.8,1.1-13.1-1.2c-0.3,0.9-0.5,1.9-0.8,2.8c2.4-0.2,4.7-0.7,7-1.5
			c1.1-0.4,1.6-2.2,0.4-2.7c-1.4-0.6-1.6-0.6-3.1-0.7c-3.3-0.3-5.5-0.7-8.5-2.5c-0.5,0.9-1,1.7-1.5,2.6c1.9,0.8,6.4,1.9,7.4,4
			c0.6-0.7,1.1-1.5,1.7-2.2c-2.2-0.5-4.2-1.1-6.3-1.8c-0.1,1-0.3,2-0.4,2.9c1.1,0,2.2,0,3.3,0c0.3-1,0.5-1.9,0.8-2.9
			c-0.2-0.1-0.3-0.1-0.5-0.2C13.2,41,10.6,42.5,11.7,44.1L11.7,44.1z"/>
	</g>
</g>
<g>
	<g>
		<path d="M67.7,72c-0.8,3.9-1.1,7.9-0.6,11.9c0.3,2.2,0.3,5.4,3,6c1.9,0.4,5.4-0.1,6.3-1.9c1.5-2.8-0.2-8.2-1.2-10.9
			c-0.5-1.5-3-1.4-2.9,0.4c0.1,2.1,0.2,4.2,0.3,6.2c0.1,1.7,2.4,2,2.9,0.4c0.8-2.5,1.8-5.4,1.7-8c0-2.1-2-3.1-3-4.8
			c-0.7-1.2-2.3-0.8-2.7,0.4c-0.8,2.3-1.1,4.6-1,7c1,0,2,0,3,0c-0.1-2-0.2-4.1-0.3-6.1c-0.1-2-2.8-1.9-3,0c-0.2,1.5-0.2,3-0.2,4.5
			c1-0.1,2-0.3,2.9-0.4c-0.4-1.2-0.9-2.4-1.3-3.6c-0.6-1.6-2.9-1.4-2.9,0.4c-0.1,3.9-1,9.5,1.1,13c0.6,0.9,2.1,1,2.6,0
			c1.3-2.5,2-5,2-7.8c-1,0-2,0-3,0c0,2.4-0.6,5.7,0.2,8c0.2,0.7,0.8,1.1,1.4,1.1c1.5,0.1,2.3-1.4,2.8-2.5c-0.9-0.3-1.9-0.5-2.8-0.8
			c0,0.3-0.1,0.6-0.1,0.9c-0.7,1.8,2.2,2.6,2.9,0.8c0.3-0.8,0.3-0.9,0.2-1.7c-0.2-1.3-2.1-2.3-2.8-0.8c-0.1,0.3-0.1,0.7-0.2,1
			c0.5,0.4,1,0.7,1.4,1.1c-0.7-2-0.1-5.1,0-7.2c0-1.9-3-1.9-3,0c0,2.3-0.5,4.3-1.6,6.3c0.9,0,1.7,0,2.6,0c-1.7-2.8-0.8-8.3-0.7-11.5
			c-1,0.1-2,0.3-2.9,0.4c0.4,1.2,0.9,2.4,1.3,3.6c0.5,1.5,3,1.4,2.9-0.4c0-1.5,0.1-3,0.2-4.5c-1,0-2,0-3,0c0.1,2,0.2,4.1,0.3,6.1
			c0.1,1.9,3.1,1.9,3,0c-0.1-2.2,0.2-4.2,0.9-6.3c-0.9,0.1-1.8,0.2-2.7,0.4c0.6,1,2.3,2.4,2.6,3.3c0.5,1.8-1.1,5.5-1.6,7.2
			c1,0.1,2,0.3,2.9,0.4c-0.1-2.1-0.2-4.2-0.3-6.2c-1,0.1-2,0.3-2.9,0.4c0.7,1.9,1.2,3.9,1.4,5.9c0.1,1.1,0.2,2.3-0.9,3
			c-1.2,0.7-1.8,0.2-2.3-0.6c-1-1.4-0.7-4.7-0.7-6.4c0-2.4,0.3-4.7,0.7-7C71,70.9,68.1,70.1,67.7,72L67.7,72z"/>
	</g>
</g>
<g>
	<g>
		<path d="M9.7,80.8c0.1,1,0.2,2,0,3c-0.3,1.9,2.3,2.7,2.9,0.8c0.1-0.2,0.1-0.4,0.2-0.5c0.3-0.8-0.3-1.6-1-1.8
			c-0.8-0.2-1.6,0.3-1.8,1c-0.1,0.2-0.1,0.4-0.2,0.5c1,0.3,1.9,0.5,2.9,0.8c0.2-1.3,0.3-2.5,0.1-3.8c-0.1-0.8-0.6-1.5-1.5-1.5
			C10.5,79.3,9.6,79.9,9.7,80.8L9.7,80.8z"/>
	</g>
</g>
<g>
	<g>
		<path d="M5.4,59.2c-1,0-1.8,0.4-2.6,1c-0.6,0.5-0.5,1.6,0,2.1c0.6,0.6,1.5,0.5,2.1,0c-0.2,0.2,0.4-0.2,0.1-0.1
			c0.1,0,0.2-0.1,0.3-0.1c-0.1,0-0.1,0,0.1,0c0.8,0,1.5-0.7,1.5-1.5C6.9,59.9,6.3,59.2,5.4,59.2L5.4,59.2z"/>
	</g>
</g>
<g>
	<g>
		<path d="M99.7,50.6c2.1-0.3,3.1-0.8,4.1-2.6c0.7-1.3-0.7-2.8-2.1-2.1c-2.1,1.3-3.6,2.7-4.9,4.9c-0.9,1.4,1.2,3.1,2.4,1.8
			c1-0.7,2-1.4,3-2.2c1.6-0.7,1.3-2.7-0.4-2.9c-1.1-0.3-2.2-0.7-3.4-1c-0.8-0.4-1.5-0.2-2.1,0.5c-0.5,0.6-1,1.3-1.3,2
			c0.9,0.3,1.9,0.5,2.8,0.8c0.2-3.5,12.1-4.7,14.1-4.9c1.9-0.2,2-3.1,0-3c-3.8,0.2-10.8-1.1-12.1,3.7c-0.2,0.9,0.4,1.9,1.4,1.9
			c3.1-0.1,6.2-0.3,9.2-0.4c-0.1-1-0.3-2-0.4-2.9c-1.5,0.3-2.9,0.4-4.4,0.3c-1.9,0-1.9,3,0,3c6.7,0,13.4,0,20.1-0.1c0-1,0-2,0-3
			c-4.5,0.2-8.9-0.1-13.4-0.8c0,1,0,1.9,0,2.9c4.5-0.6,8.8-0.7,13.3-0.3c0-1,0-2,0-3c-5-0.2-9.9-0.4-14.9-0.6c0,1,0,2,0,3
			c12.9,0,25.8-0.1,38.7-0.1c-0.3-0.9-0.5-1.9-0.8-2.8c-6.4,3.4-16.2,2-23.3,2.1c0.1,1,0.3,2,0.4,2.9c5-1.7,10-1.5,15.3-1.2
			c5,0.3,13.1-0.8,15.7,4.5c0.5,1,2.1,0.9,2.6,0c3.4-6.1-6-7.4-9.8-8.4c0.1,0.9,0.2,1.8,0.4,2.7c1.9-0.9,4.9-0.1,6.8,0.6
			c3.1,1.1,2.7,2.5,3.3,5.3c0.3,1.1,1.7,1.4,2.5,0.7c0.7-0.6,0.8-0.8,1.2-1.6c-0.9-0.1-1.8-0.2-2.7-0.4c0.1,0.5,0.2,1.1,0.3,1.6
			c0.3,1.9,3.2,1.1,2.9-0.8c-0.1-0.5-0.2-1.1-0.3-1.6c-0.2-1.3-2.2-1.4-2.7-0.4c-0.3,0.3-0.5,0.7-0.8,1c0.8,0.2,1.7,0.4,2.5,0.7
			c-0.8-3.8-0.8-6.1-4.7-7.2c-3.2-1-6.7-2-9.9-0.5c-1.2,0.6-0.8,2.4,0.4,2.7c0.7,0.2,9.3,1.6,8,4c0.9,0,1.7,0,2.6,0
			c-2.6-5.1-7.8-5.4-13-5.6c-7.3-0.3-14.4-1.4-21.4,1c-1.5,0.5-1.4,3,0.4,2.9c7.9-0.2,17.6,1.2,24.8-2.5c1.3-0.7,0.7-2.8-0.8-2.8
			c-12.9,0-25.8,0.1-38.7,0.1c-1.9,0-1.9,2.9,0,3c5,0.2,9.9,0.4,14.9,0.6c2,0.1,1.9-2.8,0-3c-4.7-0.4-9.4-0.3-14.1,0.4
			c-1.4,0.2-1.4,2.7,0,2.9c4.7,0.7,9.4,1.1,14.2,0.9c1.9-0.1,1.9-3,0-3c-6.7,0-13.4,0-20.1,0.1c0,1,0,2,0,3c1.8,0,3.4-0.2,5.2-0.4
			c1.7-0.3,1.3-3-0.4-2.9c-3.1,0.1-6.2,0.3-9.2,0.4c0.5,0.6,1,1.3,1.4,1.9c0.5-1.9,7.6-1.4,9.2-1.5c0-1,0-2,0-3
			c-5.1,0.6-16.8,1-17.1,7.9c-0.1,1.5,2.1,2.1,2.8,0.8c0.3-0.8,0.7-1.4,1.3-2c-0.7,0.2-1.4,0.4-2.1,0.5c1.6,0.8,3.1,1.2,4.9,1.4
			c-0.1-1-0.3-2-0.4-2.9c-1.8,0.7-3,1.5-4.4,2.9c0.8,0.6,1.6,1.2,2.4,1.8c0.8-1.7,2.1-2.9,3.8-3.8c-0.7-0.7-1.4-1.4-2.1-2.1
			c-0.5,0.4-1,0.8-1.5,1.1C97.8,47.8,97.8,50.8,99.7,50.6L99.7,50.6z"/>
	</g>
</g>
<g>
	<g>
		<path d="M149.1,45.1c-2.1,0.2-4.2,0.2-6.3-0.1c-1.9-0.3-2.7,2.6-0.8,2.9c2.4,0.4,4.7,0.5,7.1,0.2C151,47.9,151,44.9,149.1,45.1
			L149.1,45.1z"/>
	</g>
</g>
<g>
	<g>
		<path d="M95.4,81.6c-0.8,1.2-1.1,2.9-0.3,4.1c0.9,1.4,2.6,1.1,4,0.7c1.6-0.4,2.3-1.9,1.5-3.4c-0.7-1.3-2.2-1.9-3.5-0.9
			c-1.1,0.9-1.8,2.4-1.5,3.8c0.3,1.3,1.5,2.6,2.9,2.5c3.3-0.1,3.7-6.7,0.6-5.8c-1.6,0.4-2,2.9-1.3,4.2c0.9,1.6,3.6,1.1,3.5-0.9
			c-0.1-1.9-3.1-1.9-3,0c0,0.1,0,0.1,0,0.2c0.1-0.4,0.3-0.7,0.4-1.1c0,0,0,0,0,0c0.3-0.1,0.5-0.1,0.8-0.2c-0.1,0-0.1,0-0.2,0
			c0.3,0.1,0.5,0.1,0.8,0.2c-0.1,0-0.1-0.1-0.2-0.1c0.2,0.2,0.4,0.4,0.5,0.5c0,0,0-0.3,0-0.3c-0.2,0.1-0.4,0.3-0.7,0.4
			c0.1,0,0.1,0,0.2-0.1c-0.5-0.1-1-0.3-1.5-0.4c0,0,0.1,0.1,0.1,0.1c-0.1-0.2-0.3-0.4-0.4-0.7c0.1,0.3-0.1,0.5-0.1,0.8
			c0,0.1-0.1,0.2-0.1,0.2c0.2-0.1,0.4-0.2,0.5-0.1c0,0-0.1-0.5-0.1-0.5c0.1-0.3,0.3-0.4,0.5-0.6c-0.3,0.1-0.5,0.1-0.8,0.2
			c0,0,0,0,0,0c-0.2-0.1-0.4-0.3-0.7-0.4c0.1,0,0.1,0.1,0.1,0.1c0.1,0.2,0.2,0.1,0.1-0.3c0.2-0.2,0.4-0.4,0.5-0.5
			c-0.2,0.1-0.5,0.1-0.7,0.2c-0.3,0.1-0.8,0-0.4,0.3c0.4,0.4,0.1,0.1,0.2-0.1c0.1-0.2,0.2-0.5,0.4-0.7C99.1,81.5,96.5,80,95.4,81.6
			L95.4,81.6z"/>
	</g>
</g>
<g>
	<g>
		<path d="M101.7,84.8c1,2.5,2.1,4.1,5,4.1c1.7,0,2.1-2.6,0.4-2.9c-2-0.5-1.8-0.5-3.8-0.3c0,1,0,2,0,3c2.1-0.3,3.8-0.7,5.7-1.6
			c1.5-0.7,0.6-2.7-0.8-2.8c-1.8-0.1-1.7-0.1-3.4,0.3c-1.7,0.4-1.2,2.8,0.4,2.9c2.6,0.2,5.1,0.2,7.7,0.2c-0.1-1-0.3-2-0.4-2.9
			c-2.1,0.5-4.3,1.1-6.4,1.6c-1.8,0.4-1.2,2.8,0.4,2.9c2,0.2,3.7,0.3,5.7,0.2c1.9-0.1,1.9-3,0-3c-1.4,0-1.7,0.1-3,0.4
			c-1.6,0.4-1.3,3,0.4,2.9c3-0.1,5.9-0.1,8.9,0.2c1.7,0.1,2.1-2.7,0.4-2.9c-2.1-0.3-4.2-0.5-6.4-0.5c-1.9,0-1.9,3,0,3
			c3.5,0,6.9,0,10.4,0c1.6,0,2.1-2.7,0.4-2.9c-2.8-0.4-5.7-0.7-8.5-0.8c0,1,0,2,0,3c2.3,0,4.6-0.1,6.9-0.1c1.9,0,1.9-3,0-3
			c-2.7,0-5.4,0-8.1,0c0,1,0,2,0,3c4-0.2,8.1-0.3,12.1-0.5c1.9-0.1,1.9-2.8,0-3c-3.4-0.3-6.8-0.4-10.2-0.4c-1.9,0-1.9,2.9,0,3
			c6.1,0.4,12.1,0.2,18.2-0.4c-0.1-1-0.3-2-0.4-2.9c-3.6,0.8-7.2,1.4-10.9,1.8c-1.9,0.2-2,2.9,0,3c5.4,0.2,10.7,0.2,16.1,0
			c1.9,0,1.9-3,0-3c-2.7-0.1-5.3,0.2-8,0.6c-1.6,0.3-1.3,3.1,0.4,2.9c4.9-0.5,9.7-1,14.6-1.6c1.9-0.2,2-3,0-3c-4,0-8,0.1-12,0.1
			c0,1,0,2,0,3c3.5-0.1,7,0,10.5,0.2c-0.1-1-0.3-2-0.4-2.9c-1.7,0.6-3.2,1-5.1,1.2c-1.9,0.2-2,2.9,0,3c3.6,0.1,7.2,0.1,10.9-0.1
			c0-1,0-2,0-3c-1.9,0.1-3.7,0.2-5.6,0.2c-1.9,0-1.9,3,0,3c3,0.1,6.4,0.3,9.3-0.4c2.5-0.6,3.3-2.7,5.6-3.9c-0.7-0.6-1.5-1.1-2.2-1.7
			c-0.6,1-1.3,2-1.9,3c0.7,0.7,1.4,1.4,2.1,2.1c1.2-1.3,2.5-2.2,4-3c-0.8-0.4-1.5-0.9-2.3-1.3c-1.1,0.6-2.1,1.2-3.2,1.9
			c0.2-1.1-0.6-2.1-1.8-1.8c-1.8,0.4-3.5,0.8-5.3,1.2c-1.9,0.4-1.1,3.3,0.8,2.9c1.8-0.4,3.5-0.8,5.3-1.2c-0.6-0.6-1.2-1.2-1.8-1.8
			c-0.9,6.1,8.4,4,9.1-1.1c0.2-1.2-1.4-1.7-2.3-1.3c-1.8,0.9-3.2,2-4.6,3.5c-1.3,1.4,0.7,3.5,2.1,2.1c1.4-1.3,2.1-2.5,2.7-4.3
			c0.4-1.3-1.1-2.3-2.2-1.7c-1.8,0.9-3.1,2.5-4.9,3.2c-2.6,1-5.8,0.7-8.5,0.7c0,1,0,2,0,3c1.9,0,3.7-0.1,5.6-0.2
			c1.9-0.2,1.9-3.1,0-3c-3.6,0.2-7.2,0.3-10.9,0.1c0,1,0,2,0,3c2.1-0.2,3.9-0.6,5.9-1.3c1.6-0.6,1.3-2.9-0.4-2.9
			c-3.5-0.2-7-0.2-10.5-0.2c-1.9,0-1.9,3,0,3c4,0,8-0.1,12-0.1c0-1,0-2,0-3c-4.9,0.5-9.7,1-14.6,1.6c0.1,1,0.3,2,0.4,2.9
			c2.5-0.4,4.7-0.6,7.2-0.5c0-1,0-2,0-3c-5.4,0.1-10.7,0.1-16.1,0c0,1,0,2,0,3c3.9-0.4,7.8-1,11.7-1.9c1.6-0.4,1.3-3.1-0.4-2.9
			c-6.1,0.6-12.1,0.8-18.2,0.4c0,1,0,2,0,3c3.4,0,6.8,0.1,10.2,0.4c0-1,0-2,0-3c-4,0.2-8.1,0.3-12.1,0.5c-1.9,0.1-1.9,3,0,3
			c2.7,0,5.4,0,8.1,0c0-1,0-2,0-3c-2.3,0-4.6,0.1-6.9,0.1c-1.9,0-1.9,2.9,0,3c2.6,0.1,5.1,0.3,7.7,0.7c0.1-1,0.3-2,0.4-2.9
			c-3.5,0-6.9,0-10.4,0c0,1,0,2,0,3c1.9,0,3.7,0.1,5.6,0.4c0.1-1,0.3-2,0.4-2.9c-3-0.2-5.9-0.3-8.9-0.2c0.1,1,0.3,2,0.4,2.9
			c0.7-0.1,1.5-0.2,2.2-0.3c0-1,0-2,0-3c-2,0.1-3.7,0.1-5.7-0.2c0.1,1,0.3,2,0.4,2.9c2.1-0.5,4.3-1.1,6.4-1.6
			c1.7-0.4,1.3-2.9-0.4-2.9c-2.6,0-5.2-0.1-7.7-0.2c0.1,1,0.3,2,0.4,2.9c0.9-0.1,1.8-0.1,2.7-0.2c-0.3-0.9-0.5-1.9-0.8-2.8
			c-1.4,0.4-2.8,0.8-4.2,1.2c-1.9,0.2-2,3.1,0,3c1,0.1,2,0.2,3,0.2c0.1-1,0.3-2,0.4-2.9c-0.7-0.6-1.4-1.2-2.1-1.9
			C103.9,82.2,101,83,101.7,84.8L101.7,84.8z"/>
	</g>
</g>
<g>
	<g>
		<path d="M152.8,51c2.4,0.9,1.7,4.5,2.7,6.4c1,1.7,3.6,0.2,2.6-1.5c-0.8-1.3-0.5-3.1-1.2-4.5c-0.7-1.5-1.8-2.6-3.3-3.2
			C151.8,47.4,151,50.3,152.8,51L152.8,51z"/>
	</g>
</g>
<g>
	<g>
		<path d="M153.5,47.8c-16.9,0-33.8,0-50.8,0c-1.9,0-1.9,3,0,3c16.9,0,33.8,0,50.8,0C155.4,50.8,155.4,47.8,153.5,47.8L153.5,47.8z"
			/>
	</g>
</g>
<g id="XMLID_1_">
	<g>
		<path d="M492.6,49l-26.9,41.3l-7.3-5.1l0.3-0.3l15.8-24.1C482,59.4,488.5,55.1,492.6,49z"/>
		<path d="M497.2,33.7c0,5.6-1.7,10.7-4.5,15l-0.1,0.2c-4.1,6.1-10.6,10.5-18.1,11.7c-1.4,0.2-2.9,0.3-4.4,0.3
			c-15,0-27.1-12.2-27.1-27.3s12.1-27.3,27.1-27.3C485,6.4,497.2,18.6,497.2,33.7z M453.6,34.9c0,9.6,7.5,17.3,16.6,17.3
			s16.6-7.8,16.6-17.3c0-9.6-7.4-17.3-16.6-17.3S453.6,25.3,453.6,34.9z"/>
	</g>
	<g>
		<path fill="none" stroke="#000000" stroke-miterlimit="10" d="M492.7,48.7c2.8-4.3,4.5-9.5,4.5-15c0-15.1-12.2-27.3-27.1-27.3
			c-15,0-27.1,12.2-27.1,27.3S455.1,61,470.1,61c1.5,0,2.9-0.1,4.4-0.3c7.5-1.2,14-5.6,18.1-11.7"/>
		<path fill="none" stroke="#000000" stroke-miterlimit="10" d="M470.2,52.3c-9.2,0-16.6-7.8-16.6-17.3c0-9.6,7.5-17.3,16.6-17.3
			s16.6,7.8,16.6,17.3C486.9,44.5,479.4,52.3,470.2,52.3z"/>
		<line fill="none" stroke="#000000" stroke-miterlimit="10" x1="474.4" y1="60.7" x2="458.6" y2="84.8"/>
		<polyline fill="none" stroke="#000000" stroke-miterlimit="10" points="493.2,48 492.7,48.7 492.6,49 465.6,90.2 465.4,90.6 		"/>
		<polyline fill="none" stroke="#000000" stroke-miterlimit="10" points="458,84.9 458.4,85.1 465.6,90.2 466,90.5 		"/>
	</g>
</g>
<g>
	<g>
		<path d="M180.4,52.9c0,11.3,0,22.6,0,33.9c0,1.9,3,1.9,3,0c0-0.3,0-0.5,0-0.8c0-1.9-3-1.9-3,0c0,0.3,0,0.5,0,0.8c0,1.9,3,1.9,3,0
			c0-11.3,0-22.6,0-33.9C183.4,50.9,180.4,50.9,180.4,52.9L180.4,52.9z"/>
	</g>
</g>
<g>
	<g>
		<path d="M189.8,53c0,11.5,0,22.9,0,34.4c0,1.9,3,1.9,3,0c0-11.5,0-22.9,0-34.4C192.8,51.1,189.8,51.1,189.8,53L189.8,53z"/>
	</g>
</g>
<g>
	<g>
		<path d="M194.4,43.6c13.6,0,27.1,0,40.7,0c1.9,0,1.9-3,0-3c-13.6,0-27.1,0-40.7,0C192.5,40.6,192.5,43.6,194.4,43.6L194.4,43.6z"
			/>
	</g>
</g>
<g>
	<g>
		<path d="M194.3,50c13.2,0,26.3,0,39.5,0c1.9,0,1.9-3,0-3c-0.1,0-0.2,0-0.3,0c-1.9,0-1.9,3,0,3c0.1,0,0.2,0,0.3,0c1.9,0,1.9-3,0-3
			c-13.2,0-26.3,0-39.5,0C192.4,47,192.4,50,194.3,50L194.3,50z"/>
	</g>
</g>
<g>
	<g>
		<path d="M196.4,47.1c-2.1,0.4-4.3,1.1-5.4,3.1c-1.3,2.3-1.7,5.5-1.7,8c0,1.9,3,1.9,3,0c0-1.9,0.3-4.1,1.1-5.9
			c0.7-1.7,2.2-2,3.9-2.3C199.1,49.6,198.3,46.7,196.4,47.1L196.4,47.1z"/>
	</g>
</g>
<g>
	<g>
		<path d="M235.4,43.8c1.2-0.3,1.4,1,1.1,1.8c-0.3,0.8-1.2,1.1-1.9,1.3c-1.7,0.3-3.4-0.5-4.9-1.2c-1.7-0.8-3.3,1.7-1.5,2.6
			c3.3,1.6,8.2,3,10.7-0.7c2.1-3.2-0.3-7.5-4.2-6.6C232.7,41.4,233.5,44.3,235.4,43.8L235.4,43.8z"/>
	</g>
</g>
<g>
	<g>
		<path d="M183.5,53c1.6-5.4,6-9.2,11.7-9.2c1.9,0,1.9-3,0-3c-2.9,0-6.6,0.7-8.9,2.7c-2.6,2.2-4.7,5.5-5.6,8.7
			C180.1,54,183,54.8,183.5,53L183.5,53z"/>
	</g>
</g>
<g>
	<g>
		<path d="M193.7,43.8c1.9,0,1.9-3,0-3C191.8,40.8,191.7,43.8,193.7,43.8L193.7,43.8z"/>
	</g>
</g>
<g>
	<g>
		<path d="M193.7,43.8c1.9,0,1.9-3,0-3C191.8,40.8,191.7,43.8,193.7,43.8L193.7,43.8z"/>
	</g>
</g>
<g>
	<g>
		<path d="M180.6,86.6c-0.2,2,2.4,4,4.2,4.2c1.2,0.2,2.3-0.3,3.3-0.7c1-0.4,1.8-1.5,2.8-1.8c-0.6-0.2-1.1-0.5-1.7-0.7
			c0.2,0.5,0.5,0.9,0.9,1.4c0-0.7,0-1.4,0-2.1c-1.2,1-2.2,2-3.9,1.9c-1.6-0.1-2.3-0.8-2.4-2.4c-0.1-1.9-3.1-1.9-3,0
			c0.2,2.7,1.2,4.6,4,5.2c1.2,0.2,2.5,0.3,3.7,0c1.5-0.4,2.6-1.7,3.8-2.6c0.7-0.6,0.5-1.5,0-2.1c-0.2-0.2-0.3-0.5-0.4-0.8
			c-0.3-0.6-1.1-0.9-1.7-0.7c-1.2,0.4-1.9,1.3-3,1.9c-0.7,0.3-1.5,0.7-2.3,0.4c-0.2-0.1-1.3-0.9-1.3-1.1
			C183.7,84.6,180.7,84.6,180.6,86.6L180.6,86.6z"/>
	</g>
</g>
<g>
	<g>
		<path d="M183.5,86.4c-0.6-0.2-1.2-0.1-1.8,0.2c-0.7,0.3-0.9,1.4-0.5,2.1c0.5,0.8,1.3,0.9,2.1,0.5c-0.7,0-0.8,0-0.5,0.1
			c0.7,0.3,1.7-0.3,1.8-1C184.7,87.4,184.3,86.7,183.5,86.4L183.5,86.4z"/>
	</g>
</g>
<g>
	<g>
		<path d="M181.5,58c-0.3,4.7-0.1,9.4-0.3,14.1c-0.1,2.7,0.2,5.5-0.1,8.2c-0.3,2.2-0.6,3.8,0.4,5.9c1.7,3.7,8.6,3,9.1-1.2
			c0,0,0-0.1,0-0.1c0.9-6.3-8.8-9-9.6-2.7c0,0,0,0.1,0,0.1c3-0.4,6.1-0.8,9.1-1.2c0-0.1-0.1-0.2-0.1-0.3c0.2,1.3,0.3,2.6,0.5,3.9
			c1.2-8.9,0.3-17.8,1-26.7C192,51.6,182,51.6,181.5,58L181.5,58z"/>
	</g>
</g>
<g>
	<g>
		<path d="M191.1,54.2c0.2,0.7,0.1,1.3-0.1,1.9c-0.2,0.4-0.1,0.3,0.1-0.1c0.2-0.4,0.4-0.8,0.6-1.1c0.4-0.8,0.8-1.5,1.3-2.3
			c1.3-2.3,0.6-5.6-1.8-6.8c-2.3-1.2-5.5-0.7-6.8,1.8c-1.5,2.8-4,6.1-2.9,9.4c0.8,2.5,3.5,4.4,6.2,3.5
			C190.1,59.5,192,56.8,191.1,54.2L191.1,54.2z"/>
	</g>
</g>
<g>
	<g>
		<path d="M192.8,50.9c6.4,0,6.4-10,0-10C186.4,40.9,186.4,50.9,192.8,50.9L192.8,50.9z"/>
	</g>
</g>
<g>
	<g>
		<path d="M235.8,39.7c-14.2,0-28.4,0-42.7,0c-6.4,0-6.4,10,0,10c14.2,0,28.4,0,42.7,0C242.3,49.7,242.3,39.7,235.8,39.7L235.8,39.7
			z"/>
	</g>
</g>
<g>
	<g>
		<path d="M190.4,51c6.4,0,6.4-10,0-10C184,41,184,51,190.4,51L190.4,51z"/>
	</g>
</g>
<g>
	<g>
		<path d="M191,50.5c6.4,0,6.4-10,0-10C184.6,40.5,184.6,50.5,191,50.5L191,50.5z"/>
	</g>
</g>
<g>
	<g>
		<path d="M191.3,50.4c6.4,0,6.4-10,0-10C184.9,40.4,184.9,50.4,191.3,50.4L191.3,50.4z"/>
	</g>
</g>
<g>
	<g>
		<path d="M191.8,50.5c6.4,0,6.4-10,0-10C185.4,40.5,185.4,50.5,191.8,50.5L191.8,50.5z"/>
	</g>
</g>
<g>
	<g>
		<path d="M191.7,50.5c6.4,0,6.4-10,0-10C185.2,40.5,185.2,50.5,191.7,50.5L191.7,50.5z"/>
	</g>
</g>
<g>
	<g>
		<path d="M191.7,50.5c6.4,0,6.4-10,0-10C185.2,40.5,185.2,50.5,191.7,50.5L191.7,50.5z"/>
	</g>
</g>
<g>
	<g>
		<path d="M191.5,50.4c6.4,0,6.4-10,0-10C185.1,40.4,185.1,50.4,191.5,50.4L191.5,50.4z"/>
	</g>
</g>
<g>
	<g>
		<path d="M191.6,50.1c6.4,0,6.4-10,0-10C185.2,40.1,185.2,50.1,191.6,50.1L191.6,50.1z"/>
	</g>
</g>
<g>
	<g>
		<path d="M191.8,50.1c6.4,0,6.4-10,0-10C185.4,40.1,185.4,50.1,191.8,50.1L191.8,50.1z"/>
	</g>
</g>
<g>
	<g>
		<path d="M192.2,50.1c6.4,0,6.4-10,0-10C185.7,40.1,185.7,50.1,192.2,50.1L192.2,50.1z"/>
	</g>
</g>
<g>
	<g>
		<path d="M192.3,50c6.4,0,6.4-10,0-10C185.8,40,185.8,50,192.3,50L192.3,50z"/>
	</g>
</g>
<g>
	<g>
		<path d="M192.3,50c6.4,0,6.4-10,0-10C185.9,40,185.9,50,192.3,50L192.3,50z"/>
	</g>
</g>
<g>
	<g>
		<path d="M189.3,51.8c6.4,0,6.4-10,0-10C182.9,41.8,182.9,51.8,189.3,51.8L189.3,51.8z"/>
	</g>
</g>
<g>
	<g>
		<path d="M188.6,53c6.4,0,6.4-10,0-10C182.2,43,182.2,53,188.6,53L188.6,53z"/>
	</g>
</g>
<g>
	<g>
		<path d="M188.3,53c6.4,0,6.4-10,0-10C181.8,43,181.8,53,188.3,53L188.3,53z"/>
	</g>
</g>
<g>
	<g>
		<path d="M188.5,52.4c6.4,0,6.4-10,0-10C182.1,42.4,182.1,52.4,188.5,52.4L188.5,52.4z"/>
	</g>
</g>
<g>
	<g>
		<path d="M190.2,51.5c6.4,0,6.4-10,0-10C183.7,41.5,183.7,51.5,190.2,51.5L190.2,51.5z"/>
	</g>
</g>
<g>
	<g>
		<path d="M190.4,50.9c6.4,0,6.4-10,0-10C184,40.9,184,50.9,190.4,50.9L190.4,50.9z"/>
	</g>
</g>
<g>
	<g>
		<path d="M186,43.3c-0.5,0.9-0.1,0.2,0.1,0c-0.5,0.5-1.2,0.8-1.8,1.3c-0.5,0.5-0.9,1.1-1.3,1.7c-0.6,1.3-0.7,1.6-0.3,0.9
			c-0.1,0.2-0.3,0.4-0.4,0.6c-1.8,2.6-2.8,5.9-1,8.8c1.4,2.3,4.5,3.2,6.8,1.8c2.3-1.3,3.2-4.5,1.8-6.8c0,0.9,0,1.9,0.1,2.8
			c0.1-0.2,0.2-0.3,0.2-0.5c0.2-0.3,0.4-0.6,0.6-0.9c0.2-0.3,0.4-0.5,0.5-0.8c0.3-0.5,1.4-2.3,0.3-1.1c-0.2,0.2-0.9,0.8-0.4,0.6
			c0.5-0.2,1-0.7,1.4-1.1c0.8-0.7,1.4-1.5,1.9-2.4c1.4-2.3,0.5-5.5-1.8-6.8C190.5,40.1,187.4,40.9,186,43.3L186,43.3z"/>
	</g>
</g>
<g>
	<g>
		<path d="M186.3,55.6c6.4,0,6.4-10,0-10C179.9,45.6,179.9,55.6,186.3,55.6L186.3,55.6z"/>
	</g>
</g>
<g>
	<g>
		<path d="M186.6,55.1c6.4,0,6.4-10,0-10C180.2,45.1,180.2,55.1,186.6,55.1L186.6,55.1z"/>
	</g>
</g>
<g>
	<g>
		<path d="M186.7,54.9c6.4,0,6.4-10,0-10C180.2,44.9,180.2,54.9,186.7,54.9L186.7,54.9z"/>
	</g>
</g>
<g>
	<g>
		<path d="M189.5,51.9c6.4,0,6.4-10,0-10C183.1,41.9,183.1,51.9,189.5,51.9L189.5,51.9z"/>
	</g>
</g>
<g>
	<g>
		<path d="M186.9,56.1c6.4,0,6.4-10,0-10C180.5,46.1,180.5,56.1,186.9,56.1L186.9,56.1z"/>
	</g>
</g>
<g>
	<g>
		<path d="M186.3,56c6.4,0,6.4-10,0-10C179.9,46,179.9,56,186.3,56L186.3,56z"/>
	</g>
</g>
<g>
	<g>
		<path d="M186.1,56c6.4,0,6.4-10,0-10C179.7,46,179.7,56,186.1,56L186.1,56z"/>
	</g>
</g>
<g>
	<g>
		<path d="M253.4,50.7c0,8.8,0,17.6,0,26.4c0,1.9,3,1.9,3,0c0-8.8,0-17.6,0-26.4C256.4,48.8,253.4,48.8,253.4,50.7L253.4,50.7z"/>
	</g>
</g>
<g>
	<g>
		<path d="M262.5,50.7c0,11.8,0,23.5,0,35.3c0,1.9,3,1.9,3,0c0-11.8,0-23.5,0-35.3C265.5,48.7,262.5,48.7,262.5,50.7L262.5,50.7z"/>
	</g>
</g>
<g>
	<g>
		<path d="M317,51.1c0,9.1,0,18.2,0,27.3c0,1.9,3,1.9,3,0c0-9.1,0-18.2,0-27.3C320,49.1,317,49.1,317,51.1L317,51.1z"/>
	</g>
</g>
<g>
	<g>
		<path d="M267.6,83.2c17.1,0,34.2,0,51.3,0c1.9,0,1.9-3,0-3c-17.1,0-34.2,0-51.3,0C265.7,80.2,265.7,83.2,267.6,83.2L267.6,83.2z"
			/>
	</g>
</g>
<g>
	<g>
		<path d="M266.7,47.4c16.3,0,32.5,0,48.8,0c1.9,0,1.9-3,0-3c-16.3,0-32.5,0-48.8,0C264.8,44.4,264.8,47.4,266.7,47.4L266.7,47.4z"
			/>
	</g>
</g>
<g>
	<g>
		<path d="M267.2,40.6c11.4,0,22.7,0,34.1,0c1.9,0,1.9-3,0-3c-0.8,0-1.6,0-2.4,0c-1.9,0-1.9,3,0,3c5.3,0,10.7,0,16,0
			c1.9,0,1.9-3,0-3c-0.4,0-0.7,0-1.1,0c-1.9,0-1.9,3,0,3c0.4,0,0.7,0,1.1,0c1.9,0,1.9-3,0-3c-5.3,0-10.7,0-16,0c-1.9,0-1.9,3,0,3
			c0.8,0,1.6,0,2.4,0c1.9,0,1.9-3,0-3c-11.4,0-22.7,0-34.1,0C265.3,37.6,265.3,40.6,267.2,40.6L267.2,40.6z"/>
	</g>
</g>
<g>
	<g>
		<path d="M267.9,89.5c16.1,0,32.3,0,48.4,0c1.9,0,1.9-3,0-3c-16.1,0-32.3,0-48.4,0C265.9,86.5,265.9,89.5,267.9,89.5L267.9,89.5z"
			/>
	</g>
</g>
<g>
	<g>
		<path d="M326,48.4c0,10.1,0,20.3,0,30.4c0,1.9,3,1.9,3,0c0-10.1,0-20.3,0-30.4C329,46.5,326,46.5,326,48.4L326,48.4z"/>
	</g>
</g>
<g>
	<g>
		<path d="M268.1,44.5c-4.8,0.2-6,7-5.9,10.8c0.1,1.9,3.1,1.9,3,0c-0.1-1.5,0.1-3,0.5-4.4c0.3-1.1,1-3.3,2.4-3.4
			C270,47.4,270,44.4,268.1,44.5L268.1,44.5z"/>
	</g>
</g>
<g>
	<g>
		<path d="M314.5,47.6c2.9-0.3,3.5,4,3.5,6.2c1-0.1,2-0.3,2.9-0.4c-0.7-2-0.9-3.9-1-6c-0.1-1.9-3.1-1.9-3,0c0.1,2.3,0.3,4.6,1.1,6.8
			c0.5,1.5,3,1.4,2.9-0.4c0-3.8-1.7-9.7-6.5-9.2C312.6,44.8,312.5,47.8,314.5,47.6L314.5,47.6z"/>
	</g>
</g>
<g>
	<g>
		<path d="M256.3,50.8c1-2.9,2.1-4.8,4.5-6.8c2.2-1.9,5-4,8.1-3.3c1.9,0.5,2.7-2.4,0.8-2.9c-3.6-0.9-6.8,0.8-9.6,2.9
			c-1.6,1.3-3.6,2.7-4.7,4.5c-1,1.4-1.4,3.2-1.9,4.8C252.8,51.8,255.7,52.6,256.3,50.8L256.3,50.8z"/>
	</g>
</g>
<g>
	<g>
		<path d="M314,40.6c5.2,0.8,10.5,2.2,11.9,8c0.4,1.7,2.9,1.2,2.9-0.4c0.1-1.2-0.3-2-1.2-2.7c-1.5-1.2-3.6,0.9-2.1,2.1
			c0.1,0.2,0.2,0.4,0.3,0.6c1-0.1,2-0.3,2.9-0.4c-1.6-6.9-7.6-9.1-14-10.1C312.9,37.4,312.1,40.3,314,40.6L314,40.6z"/>
	</g>
</g>
<g>
	<g>
		<path d="M253.3,77.6c0.4,1.7,1.5,3.3,2.5,4.6c0.5,0.6,1.3,1,2.1,0.5c0.6-0.4,1-1.4,0.5-2.1c-0.9-1.2-1.9-2.5-2.2-3.9
			C255.8,75,252.9,75.8,253.3,77.6L253.3,77.6z"/>
	</g>
</g>
<g>
	<g>
		<path d="M253.4,77.9c1,2.8,2.5,5.2,4.9,7.1c2.7,2.2,5.9,2.8,9,4c0-1,0-1.9,0-2.9c-1,0.4-2.9-0.6-3.8-1c-1.4-0.6-2.5-1.5-3.3-2.9
			c-0.9-1.7-3.5-0.2-2.6,1.5c1,1.9,2.6,3.2,4.5,4.1c1.7,0.8,4.1,1.9,5.9,1.2c1.4-0.5,1.4-2.4,0-2.9c-2.6-0.9-5.3-1.4-7.5-3.1
			c-2-1.5-3.4-3.5-4.2-5.9C255.6,75.3,252.7,76.1,253.4,77.9L253.4,77.9z"/>
	</g>
</g>
<g>
	<g>
		<path d="M265.5,88.5c0.2,0.1,0.8,0.4,1,0.5c0.6,0.5,1.5,0.6,2.1,0c0.5-0.5,0.6-1.6,0-2.1c-0.7-0.6-1.4-1-2.3-1.3
			c-0.7-0.3-1.7,0.3-1.8,1C264.2,87.5,264.7,88.2,265.5,88.5L265.5,88.5z"/>
	</g>
</g>
<g>
	<g>
		<path d="M262.4,76c0.3,2,1,4,2.5,5.4c1.6,1.5,3.6,1.9,5.7,2.1c1.9,0.2,1.9-2.8,0-3c-1.4-0.2-2.9-0.4-3.8-1.5
			c-0.9-1-1.2-2.5-1.5-3.8C265,73.3,262.1,74.1,262.4,76L262.4,76z"/>
	</g>
</g>
<g>
	<g>
		<path d="M317.1,76.1c0.5,1.6-1.3,3.4-2.6,4c-1.5,0.7-3.1,1.1-4.7,1.6c-1.8,0.6-1,3.5,0.8,2.9c2.3-0.8,5.3-1.3,7.1-3
			c1.6-1.5,2.9-4.1,2.2-6.3C319.4,73.5,316.5,74.3,317.1,76.1L317.1,76.1z"/>
	</g>
</g>
<g>
	<g>
		<path d="M315.3,89.3c5.9,1.5,15.2-6.3,12.4-12.5c-0.8-1.8-3.4-0.2-2.6,1.5c0.9,2.1-1.7,4.7-3.1,5.9c-1.5,1.2-3.9,2.6-5.9,2.1
			C314.2,85.9,313.4,88.8,315.3,89.3L315.3,89.3z"/>
	</g>
</g>
<g>
	<g>
		<path d="M321.4,73.1c1.9,0,1.9-3,0-3C319.4,70.1,319.4,73.1,321.4,73.1L321.4,73.1z"/>
	</g>
</g>
<g>
	<g>
		<path d="M325.9,77.6c0.2,0.2,0.2,1.3,0.1,1.5c-0.2,0.5-0.6,0.7-0.8,1.2c-0.3,0.7,0.2,1.3,0.7,1.7c0,0,0,0,0.1,0
			c0.5,0.4,1.4,0.2,1.8-0.2c0,0,0,0,0,0c1.4-1.4-0.7-3.5-2.1-2.1c0,0,0,0,0,0c0.6-0.1,1.2-0.2,1.8-0.2c0,0,0,0-0.1,0
			c0.2,0.6,0.5,1.1,0.7,1.7c0,0,0-0.1,0-0.1c-0.1,0.2-0.3,0.4-0.4,0.7c1.7-1.4,1.7-4.7,0.3-6.3C326.8,74,324.6,76.2,325.9,77.6
			L325.9,77.6z"/>
	</g>
</g>
<g>
	<g>
		<path d="M317.6,51.7c0,8.7,0,17.4,0,26.1c0,6.4,10,6.4,10,0c0-8.7,0-17.4,0-26.1C327.6,45.3,317.6,45.3,317.6,51.7L317.6,51.7z"/>
	</g>
</g>
<g>
	<g>
		<path d="M254.3,51.2c0,8.4,0,16.8,0,25.2c0,6.4,10,6.4,10,0c0-8.4,0-16.8,0-25.2C264.3,44.7,254.3,44.7,254.3,51.2L254.3,51.2z"/>
	</g>
</g>
<g>
	<g>
		<path d="M262.2,48c2.1-0.3,3.1-0.8,4.1-2.6c0.7-1.3-0.7-2.8-2.1-2.1c-2.1,1.3-3.6,2.7-4.9,4.9c-0.9,1.4,1.2,3.1,2.4,1.8
			c1-0.7,2-1.4,3-2.2c1.6-0.7,1.3-2.7-0.4-2.9c-1.1-0.3-2.2-0.7-3.4-1c-0.8-0.4-1.5-0.2-2.1,0.5c-0.5,0.6-1,1.3-1.3,2
			c0.9,0.3,1.9,0.5,2.8,0.8c0.2-3.5,12.1-4.7,14.1-4.9c1.9-0.2,2-3.1,0-3c-3.8,0.2-10.8-1.1-12.1,3.7c-0.2,0.9,0.4,1.9,1.4,1.9
			c3.1-0.1,6.2-0.3,9.2-0.4c-0.1-1-0.3-2-0.4-2.9c-1.5,0.3-2.9,0.4-4.4,0.3c-1.9,0-1.9,3,0,3c6.7,0,13.4,0,20.1-0.1c0-1,0-2,0-3
			c-4.5,0.2-8.9-0.1-13.4-0.8c0,1,0,1.9,0,2.9c4.5-0.6,8.8-0.7,13.3-0.3c0-1,0-2,0-3c-5-0.2-9.9-0.4-14.9-0.6c0,1,0,2,0,3
			c12.9,0,25.8-0.1,38.7-0.1c-0.3-0.9-0.5-1.9-0.8-2.8c-6.4,3.4-16.2,2-23.3,2.1c0.1,1,0.3,2,0.4,2.9c5-1.7,10-1.5,15.3-1.2
			c5,0.3,13.1-0.8,15.7,4.5c0.5,1,2.1,0.9,2.6,0c3.4-6.1-6-7.4-9.8-8.4c0.1,0.9,0.2,1.8,0.4,2.7c1.9-0.9,4.9-0.1,6.8,0.6
			c3.1,1.1,2.7,2.5,3.3,5.3c0.3,1.1,1.7,1.4,2.5,0.7c0.7-0.6,0.8-0.8,1.2-1.6c-0.9-0.1-1.8-0.2-2.7-0.4c0.1,0.5,0.2,1.1,0.3,1.6
			c0.3,1.9,3.2,1.1,2.9-0.8c-0.1-0.5-0.2-1.1-0.3-1.6c-0.2-1.3-2.2-1.4-2.7-0.4c-0.3,0.3-0.5,0.7-0.8,1c0.8,0.2,1.7,0.4,2.5,0.7
			c-0.8-3.8-0.8-6.1-4.7-7.2c-3.2-1-6.7-2-9.9-0.5c-1.2,0.6-0.8,2.4,0.4,2.7c0.7,0.2,9.3,1.6,8,4c0.9,0,1.7,0,2.6,0
			c-2.6-5.1-7.8-5.4-13-5.6c-7.3-0.3-14.4-1.4-21.4,1c-1.5,0.5-1.4,3,0.4,2.9c7.9-0.2,17.6,1.2,24.8-2.5c1.3-0.7,0.7-2.8-0.8-2.8
			c-12.9,0-25.8,0.1-38.7,0.1c-1.9,0-1.9,2.9,0,3c5,0.2,9.9,0.4,14.9,0.6c2,0.1,1.9-2.8,0-3c-4.7-0.4-9.4-0.3-14.1,0.4
			c-1.4,0.2-1.4,2.7,0,2.9c4.7,0.7,9.4,1.1,14.2,0.9c1.9-0.1,1.9-3,0-3c-6.7,0-13.4,0-20.1,0.1c0,1,0,2,0,3c1.8,0,3.4-0.2,5.2-0.4
			c1.7-0.3,1.3-3-0.4-2.9c-3.1,0.1-6.2,0.3-9.2,0.4c0.5,0.6,1,1.3,1.4,1.9c0.5-1.9,7.6-1.4,9.2-1.5c0-1,0-2,0-3
			c-5.1,0.6-16.8,1-17.1,7.9c-0.1,1.5,2.1,2.1,2.8,0.8c0.3-0.8,0.7-1.4,1.3-2c-0.7,0.2-1.4,0.4-2.1,0.5c1.6,0.8,3.1,1.2,4.9,1.4
			c-0.1-1-0.3-2-0.4-2.9c-1.8,0.7-3,1.5-4.4,2.9c0.8,0.6,1.6,1.2,2.4,1.8c0.8-1.7,2.1-2.9,3.8-3.8c-0.7-0.7-1.4-1.4-2.1-2.1
			c-0.5,0.4-1,0.8-1.5,1.1C260.3,45.2,260.3,48.2,262.2,48L262.2,48z"/>
	</g>
</g>
<g>
	<g>
		<path d="M311.6,42.5c-2.1,0.2-4.2,0.2-6.3-0.1c-1.9-0.3-2.7,2.6-0.8,2.9c2.4,0.4,4.7,0.5,7.1,0.2
			C313.5,45.3,313.5,42.3,311.6,42.5L311.6,42.5z"/>
	</g>
</g>
<g>
	<g>
		<path d="M258,79c-0.8,1.2-1.1,2.9-0.3,4.1c0.9,1.4,2.6,1.1,4,0.7c1.6-0.4,2.3-1.9,1.5-3.4c-0.7-1.3-2.2-1.9-3.5-0.9
			c-1.1,0.9-1.8,2.4-1.5,3.8c0.3,1.3,1.5,2.6,2.9,2.5c3.3-0.1,3.7-6.7,0.6-5.8c-1.6,0.4-2,2.9-1.3,4.2c0.9,1.6,3.6,1.1,3.5-0.9
			c-0.1-1.9-3.1-1.9-3,0c0,0.1,0,0.1,0,0.2c0.1-0.4,0.3-0.7,0.4-1.1c0,0,0,0,0,0c0.3-0.1,0.5-0.1,0.8-0.2c-0.1,0-0.1,0-0.2,0
			c0.3,0.1,0.5,0.1,0.8,0.2c-0.1,0-0.1-0.1-0.2-0.1c0.2,0.2,0.4,0.4,0.5,0.5c0,0,0-0.3,0-0.3c-0.2,0.1-0.4,0.3-0.7,0.4
			c0.1,0,0.1,0,0.2-0.1c-0.5-0.1-1-0.3-1.5-0.4c0,0,0.1,0.1,0.1,0.1c-0.1-0.2-0.3-0.4-0.4-0.7c0.1,0.3-0.1,0.5-0.1,0.8
			c0,0.1-0.1,0.2-0.1,0.2c0.2-0.1,0.4-0.2,0.5-0.1c0,0-0.1-0.5-0.1-0.5c0.1-0.3,0.3-0.4,0.5-0.6c-0.3,0.1-0.5,0.1-0.8,0.2
			c0,0,0,0,0,0c-0.2-0.1-0.4-0.3-0.7-0.4c0.1,0,0.1,0.1,0.1,0.1c0.1,0.2,0.2,0.1,0.1-0.3c0.2-0.2,0.4-0.4,0.5-0.5
			c-0.2,0.1-0.5,0.1-0.7,0.2c-0.3,0.1-0.8,0-0.4,0.3c0.4,0.4,0.1,0.1,0.2-0.1c0.1-0.2,0.2-0.5,0.4-0.7C261.7,78.9,259.1,77.4,258,79
			L258,79z"/>
	</g>
</g>
<g>
	<g>
		<path d="M264.3,82.2c1,2.5,2.1,4.1,5,4.1c1.7,0,2.1-2.6,0.4-2.9c-2-0.5-1.8-0.5-3.8-0.3c0,1,0,2,0,3c2.1-0.3,3.8-0.7,5.7-1.6
			c1.5-0.7,0.6-2.7-0.8-2.8c-1.8-0.1-1.7-0.1-3.4,0.3c-1.7,0.4-1.2,2.8,0.4,2.9c2.6,0.2,5.1,0.2,7.7,0.2c-0.1-1-0.3-2-0.4-2.9
			c-2.1,0.5-4.3,1.1-6.4,1.6c-1.8,0.4-1.2,2.8,0.4,2.9c2,0.2,3.7,0.3,5.7,0.2c1.9-0.1,1.9-3,0-3c-1.4,0-1.7,0.1-3,0.4
			c-1.6,0.4-1.3,3,0.4,2.9c3-0.1,5.9-0.1,8.9,0.2c1.7,0.1,2.1-2.7,0.4-2.9c-2.1-0.3-4.2-0.5-6.4-0.5c-1.9,0-1.9,3,0,3
			c3.5,0,6.9,0,10.4,0c1.6,0,2.1-2.7,0.4-2.9c-2.8-0.4-5.7-0.7-8.5-0.8c0,1,0,2,0,3c2.3,0,4.6-0.1,6.9-0.1c1.9,0,1.9-3,0-3
			c-2.7,0-5.4,0-8.1,0c0,1,0,2,0,3c4-0.2,8.1-0.3,12.1-0.5c1.9-0.1,1.9-2.8,0-3c-3.4-0.3-6.8-0.4-10.2-0.4c-1.9,0-1.9,2.9,0,3
			c6.1,0.4,12.1,0.2,18.2-0.4c-0.1-1-0.3-2-0.4-2.9c-3.6,0.8-7.2,1.4-10.9,1.8c-1.9,0.2-2,2.9,0,3c5.4,0.2,10.7,0.2,16.1,0
			c1.9,0,1.9-3,0-3c-2.7-0.1-5.3,0.2-8,0.6c-1.6,0.3-1.3,3.1,0.4,2.9c4.9-0.5,9.7-1,14.6-1.6c1.9-0.2,2-3,0-3c-4,0-8,0.1-12,0.1
			c0,1,0,2,0,3c3.5-0.1,7,0,10.5,0.2c-0.1-1-0.3-2-0.4-2.9c-1.7,0.6-3.2,1-5.1,1.2c-1.9,0.2-2,2.9,0,3c3.6,0.1,7.2,0.1,10.9-0.1
			c0-1,0-2,0-3c-1.9,0.1-3.7,0.2-5.6,0.2c-1.9,0-1.9,3,0,3c3,0.1,6.4,0.3,9.3-0.4c2.5-0.6,3.3-2.7,5.6-3.9c-0.7-0.6-1.5-1.1-2.2-1.7
			c-0.6,1-1.3,2-1.9,3c0.7,0.7,1.4,1.4,2.1,2.1c1.2-1.3,2.5-2.2,4-3c-0.8-0.4-1.5-0.9-2.3-1.3c-1.1,0.6-2.1,1.2-3.2,1.9
			c0.2-1.1-0.6-2.1-1.8-1.8c-1.8,0.4-3.5,0.8-5.3,1.2c-1.9,0.4-1.1,3.3,0.8,2.9c1.8-0.4,3.5-0.8,5.3-1.2c-0.6-0.6-1.2-1.2-1.8-1.8
			c-0.9,6.1,8.4,4,9.1-1.1c0.2-1.2-1.4-1.7-2.3-1.3c-1.8,0.9-3.2,2-4.6,3.5c-1.3,1.4,0.7,3.5,2.1,2.1c1.4-1.3,2.1-2.5,2.7-4.3
			c0.4-1.3-1.1-2.3-2.2-1.7c-1.8,0.9-3.1,2.5-4.9,3.2c-2.6,1-5.8,0.7-8.5,0.7c0,1,0,2,0,3c1.9,0,3.7-0.1,5.6-0.2
			c1.9-0.2,1.9-3.1,0-3c-3.6,0.2-7.2,0.3-10.9,0.1c0,1,0,2,0,3c2.1-0.2,3.9-0.6,5.9-1.3c1.6-0.6,1.3-2.9-0.4-2.9
			c-3.5-0.2-7-0.2-10.5-0.2c-1.9,0-1.9,3,0,3c4,0,8-0.1,12-0.1c0-1,0-2,0-3c-4.9,0.5-9.7,1-14.6,1.6c0.1,1,0.3,2,0.4,2.9
			c2.5-0.4,4.7-0.6,7.2-0.5c0-1,0-2,0-3c-5.4,0.1-10.7,0.1-16.1,0c0,1,0,2,0,3c3.9-0.4,7.8-1,11.7-1.9c1.6-0.4,1.3-3.1-0.4-2.9
			c-6.1,0.6-12.1,0.8-18.2,0.4c0,1,0,2,0,3c3.4,0,6.8,0.1,10.2,0.4c0-1,0-2,0-3c-4,0.2-8.1,0.3-12.1,0.5c-1.9,0.1-1.9,3,0,3
			c2.7,0,5.4,0,8.1,0c0-1,0-2,0-3c-2.3,0-4.6,0.1-6.9,0.1c-1.9,0-1.9,2.9,0,3c2.6,0.1,5.1,0.3,7.7,0.7c0.1-1,0.3-2,0.4-2.9
			c-3.5,0-6.9,0-10.4,0c0,1,0,2,0,3c1.9,0,3.7,0.1,5.6,0.4c0.1-1,0.3-2,0.4-2.9c-3-0.2-5.9-0.3-8.9-0.2c0.1,1,0.3,2,0.4,2.9
			c0.7-0.1,1.5-0.2,2.2-0.3c0-1,0-2,0-3c-2,0.1-3.7,0.1-5.7-0.2c0.1,1,0.3,2,0.4,2.9c2.1-0.5,4.3-1.1,6.4-1.6
			c1.7-0.4,1.3-2.9-0.4-2.9c-2.6,0-5.2-0.1-7.7-0.2c0.1,1,0.3,2,0.4,2.9c0.9-0.1,1.8-0.1,2.7-0.2c-0.3-0.9-0.5-1.9-0.8-2.8
			c-1.4,0.4-2.8,0.8-4.2,1.2c-1.9,0.2-2,3.1,0,3c1,0.1,2,0.2,3,0.2c0.1-1,0.3-2,0.4-2.9c-0.7-0.6-1.4-1.2-2.1-1.9
			C266.5,79.6,263.6,80.4,264.3,82.2L264.3,82.2z"/>
	</g>
</g>
<g>
	<g>
		<path d="M315.3,48.4c2.4,0.9,1.7,4.5,2.7,6.4c1,1.7,3.6,0.2,2.6-1.5c-0.8-1.3-0.5-3.1-1.2-4.5c-0.7-1.5-1.8-2.6-3.3-3.2
			C314.3,44.8,313.5,47.7,315.3,48.4L315.3,48.4z"/>
	</g>
</g>
<g>
	<g>
		<path d="M316,45.2c-16.9,0-33.8,0-50.8,0c-1.9,0-1.9,3,0,3c16.9,0,33.8,0,50.8,0C318,48.2,318,45.2,316,45.2L316,45.2z"/>
	</g>
</g>
</svg>
